<svg width="939" height="2082" viewBox="0 0 939 2082" fill="none" xmlns="http://www.w3.org/2000/svg">
<circle cx="482.189" cy="1444.41" r="1.40991" fill="#11318A"/>
<circle cx="482.189" cy="2.67346" r="2.11486" fill="#11318A"/>
<circle cx="482.189" cy="26.6419" r="2.81982" fill="#11318A"/>
<circle cx="482.189" cy="51.3154" r="3.52477" fill="#11318A"/>
<circle cx="482.189" cy="76.6937" r="4.22973" fill="#11318A"/>
<circle cx="482.189" cy="102.777" r="4.93468" fill="#11318A"/>
<circle cx="482.189" cy="129.565" r="5.63964" fill="#11318A"/>
<circle cx="482.189" cy="157.059" r="6.34459" fill="#11318A"/>
<circle cx="482.189" cy="185.257" r="7.04955" fill="#11318A"/>
<circle cx="482.189" cy="213.455" r="7.7545" fill="#11318A"/>
<circle cx="482.189" cy="241.653" r="8.45946" fill="#11318A"/>
<circle cx="482.189" cy="269.851" r="9.16441" fill="#11318A"/>
<circle cx="482.189" cy="298.05" r="9.86937" fill="#11318A"/>
<circle cx="482.189" cy="2080.28" r="1.40991" transform="rotate(-180 482.189 2080.28)" fill="#11318A"/>
<circle cx="482.189" cy="592.016" r="2.11486" transform="rotate(-180 482.189 592.016)" fill="#11318A"/>
<circle cx="482.189" cy="568.047" r="2.81982" transform="rotate(-180 482.189 568.047)" fill="#11318A"/>
<circle cx="482.189" cy="543.374" r="3.52477" transform="rotate(-180 482.189 543.374)" fill="#11318A"/>
<circle cx="482.189" cy="517.996" r="4.22973" transform="rotate(-180 482.189 517.996)" fill="#11318A"/>
<circle cx="482.189" cy="491.912" r="4.93468" transform="rotate(-180 482.189 491.912)" fill="#11318A"/>
<circle cx="482.189" cy="465.124" r="5.63964" transform="rotate(-180 482.189 465.124)" fill="#11318A"/>
<circle cx="482.189" cy="437.631" r="6.34459" transform="rotate(-180 482.189 437.631)" fill="#11318A"/>
<circle cx="482.189" cy="409.432" r="7.04955" transform="rotate(-180 482.189 409.432)" fill="#11318A"/>
<circle cx="482.189" cy="381.234" r="7.7545" transform="rotate(-180 482.189 381.234)" fill="#11318A"/>
<circle cx="482.189" cy="353.036" r="8.45946" transform="rotate(-180 482.189 353.036)" fill="#11318A"/>
<circle cx="482.189" cy="324.838" r="9.16441" transform="rotate(-180 482.189 324.838)" fill="#11318A"/>
<circle cx="453.991" cy="1444.41" r="1.40991" fill="#11318A"/>
<circle cx="453.991" cy="2.67346" r="2.11486" fill="#11318A"/>
<circle cx="453.991" cy="26.6419" r="2.81982" fill="#11318A"/>
<circle cx="453.991" cy="51.3154" r="3.52477" fill="#11318A"/>
<circle cx="453.991" cy="76.6937" r="4.22973" fill="#11318A"/>
<circle cx="453.991" cy="102.777" r="4.93468" fill="#11318A"/>
<circle cx="453.991" cy="129.565" r="5.63964" fill="#11318A"/>
<circle cx="453.991" cy="157.059" r="6.34459" fill="#11318A"/>
<circle cx="453.991" cy="185.257" r="7.04955" fill="#11318A"/>
<circle cx="453.991" cy="213.455" r="7.7545" fill="#11318A"/>
<circle cx="453.991" cy="241.653" r="8.45946" fill="#11318A"/>
<circle cx="453.991" cy="269.851" r="9.16441" fill="#11318A"/>
<circle cx="453.991" cy="298.05" r="9.86937" fill="#11318A"/>
<circle cx="453.991" cy="2080.28" r="1.40991" transform="rotate(-180 453.991 2080.28)" fill="#11318A"/>
<circle cx="453.991" cy="592.016" r="2.11486" transform="rotate(-180 453.991 592.016)" fill="#11318A"/>
<circle cx="453.991" cy="568.047" r="2.81982" transform="rotate(-180 453.991 568.047)" fill="#11318A"/>
<circle cx="453.991" cy="543.374" r="3.52477" transform="rotate(-180 453.991 543.374)" fill="#11318A"/>
<circle cx="453.991" cy="517.996" r="4.22973" transform="rotate(-180 453.991 517.996)" fill="#11318A"/>
<circle cx="453.991" cy="491.912" r="4.93468" transform="rotate(-180 453.991 491.912)" fill="#11318A"/>
<circle cx="453.991" cy="465.124" r="5.63964" transform="rotate(-180 453.991 465.124)" fill="#11318A"/>
<circle cx="453.991" cy="437.631" r="6.34459" transform="rotate(-180 453.991 437.631)" fill="#11318A"/>
<circle cx="453.991" cy="409.432" r="7.04955" transform="rotate(-180 453.991 409.432)" fill="#11318A"/>
<circle cx="453.991" cy="381.234" r="7.7545" transform="rotate(-180 453.991 381.234)" fill="#11318A"/>
<circle cx="453.991" cy="353.036" r="8.45946" transform="rotate(-180 453.991 353.036)" fill="#11318A"/>
<circle cx="453.991" cy="324.838" r="9.16441" transform="rotate(-180 453.991 324.838)" fill="#11318A"/>
<circle cx="425.793" cy="1472.61" r="1.40991" fill="#11318A"/>
<circle cx="425.793" cy="30.8716" r="2.11486" fill="#11318A"/>
<circle cx="425.793" cy="54.8401" r="2.81982" fill="#11318A"/>
<circle cx="425.793" cy="79.5135" r="3.52477" fill="#11318A"/>
<circle cx="425.793" cy="104.892" r="4.22973" fill="#11318A"/>
<circle cx="425.793" cy="130.975" r="4.93468" fill="#11318A"/>
<circle cx="425.793" cy="157.764" r="5.63964" fill="#11318A"/>
<circle cx="425.793" cy="185.257" r="6.34459" fill="#11318A"/>
<circle cx="425.793" cy="213.455" r="7.04955" fill="#11318A"/>
<circle cx="425.793" cy="241.653" r="7.7545" fill="#11318A"/>
<circle cx="425.793" cy="269.851" r="8.45946" fill="#11318A"/>
<circle cx="425.793" cy="298.05" r="9.16441" fill="#11318A"/>
<circle cx="425.793" cy="2052.08" r="1.40991" transform="rotate(-180 425.793 2052.08)" fill="#11318A"/>
<circle cx="425.793" cy="563.818" r="2.11486" transform="rotate(-180 425.793 563.818)" fill="#11318A"/>
<circle cx="425.793" cy="539.849" r="2.81982" transform="rotate(-180 425.793 539.849)" fill="#11318A"/>
<circle cx="425.793" cy="515.176" r="3.52477" transform="rotate(-180 425.793 515.176)" fill="#11318A"/>
<circle cx="425.793" cy="489.797" r="4.22973" transform="rotate(-180 425.793 489.797)" fill="#11318A"/>
<circle cx="425.793" cy="463.714" r="4.93468" transform="rotate(-180 425.793 463.714)" fill="#11318A"/>
<circle cx="425.793" cy="436.926" r="5.63964" transform="rotate(-180 425.793 436.926)" fill="#11318A"/>
<circle cx="425.793" cy="409.432" r="6.34459" transform="rotate(-180 425.793 409.432)" fill="#11318A"/>
<circle cx="425.793" cy="381.234" r="7.04955" transform="rotate(-180 425.793 381.234)" fill="#11318A"/>
<circle cx="425.793" cy="353.036" r="7.7545" transform="rotate(-180 425.793 353.036)" fill="#11318A"/>
<circle cx="425.793" cy="324.838" r="8.45946" transform="rotate(-180 425.793 324.838)" fill="#11318A"/>
<circle cx="397.595" cy="1472.61" r="1.40991" fill="#11318A"/>
<circle cx="397.595" cy="30.8716" r="2.11486" fill="#11318A"/>
<circle cx="397.595" cy="54.8401" r="2.81982" fill="#11318A"/>
<circle cx="397.595" cy="79.5135" r="3.52477" fill="#11318A"/>
<circle cx="397.595" cy="104.892" r="4.22973" fill="#11318A"/>
<circle cx="397.595" cy="130.975" r="4.93468" fill="#11318A"/>
<circle cx="397.595" cy="157.764" r="5.63964" fill="#11318A"/>
<circle cx="397.595" cy="185.257" r="6.34459" fill="#11318A"/>
<circle cx="397.595" cy="213.455" r="7.04955" fill="#11318A"/>
<circle cx="397.595" cy="241.653" r="7.7545" fill="#11318A"/>
<circle cx="397.595" cy="269.851" r="8.45946" fill="#11318A"/>
<circle cx="397.595" cy="298.05" r="9.16441" fill="#11318A"/>
<circle cx="397.595" cy="2052.08" r="1.40991" transform="rotate(-180 397.595 2052.08)" fill="#11318A"/>
<circle cx="397.595" cy="563.818" r="2.11486" transform="rotate(-180 397.595 563.818)" fill="#11318A"/>
<circle cx="397.595" cy="539.849" r="2.81982" transform="rotate(-180 397.595 539.849)" fill="#11318A"/>
<circle cx="397.595" cy="515.176" r="3.52477" transform="rotate(-180 397.595 515.176)" fill="#11318A"/>
<circle cx="397.595" cy="489.797" r="4.22973" transform="rotate(-180 397.595 489.797)" fill="#11318A"/>
<circle cx="397.595" cy="463.714" r="4.93468" transform="rotate(-180 397.595 463.714)" fill="#11318A"/>
<circle cx="397.595" cy="436.926" r="5.63964" transform="rotate(-180 397.595 436.926)" fill="#11318A"/>
<circle cx="397.595" cy="409.432" r="6.34459" transform="rotate(-180 397.595 409.432)" fill="#11318A"/>
<circle cx="397.595" cy="381.234" r="7.04955" transform="rotate(-180 397.595 381.234)" fill="#11318A"/>
<circle cx="397.595" cy="353.036" r="7.7545" transform="rotate(-180 397.595 353.036)" fill="#11318A"/>
<circle cx="397.595" cy="324.838" r="8.45946" transform="rotate(-180 397.595 324.838)" fill="#11318A"/>
<circle cx="369.396" cy="1500.81" r="1.40991" fill="#11318A"/>
<circle cx="369.396" cy="59.0699" r="2.11486" fill="#11318A"/>
<circle cx="369.396" cy="83.0383" r="2.81982" fill="#11318A"/>
<circle cx="369.396" cy="107.712" r="3.52477" fill="#11318A"/>
<circle cx="369.396" cy="133.09" r="4.22973" fill="#11318A"/>
<circle cx="369.396" cy="159.173" r="4.93468" fill="#11318A"/>
<circle cx="369.396" cy="185.962" r="5.63964" fill="#11318A"/>
<circle cx="369.396" cy="213.455" r="6.34459" fill="#11318A"/>
<circle cx="369.396" cy="241.653" r="7.04955" fill="#11318A"/>
<circle cx="369.396" cy="269.851" r="7.7545" fill="#11318A"/>
<circle cx="369.396" cy="298.05" r="8.45946" fill="#11318A"/>
<circle cx="369.396" cy="2023.88" r="1.40991" transform="rotate(-180 369.396 2023.88)" fill="#11318A"/>
<circle cx="369.396" cy="535.619" r="2.11486" transform="rotate(-180 369.396 535.619)" fill="#11318A"/>
<circle cx="369.396" cy="511.651" r="2.81982" transform="rotate(-180 369.396 511.651)" fill="#11318A"/>
<circle cx="369.396" cy="486.978" r="3.52477" transform="rotate(-180 369.396 486.978)" fill="#11318A"/>
<circle cx="369.396" cy="461.599" r="4.22973" transform="rotate(-180 369.396 461.599)" fill="#11318A"/>
<circle cx="369.396" cy="435.516" r="4.93468" transform="rotate(-180 369.396 435.516)" fill="#11318A"/>
<circle cx="369.396" cy="408.728" r="5.63964" transform="rotate(-180 369.396 408.728)" fill="#11318A"/>
<circle cx="369.396" cy="381.234" r="6.34459" transform="rotate(-180 369.396 381.234)" fill="#11318A"/>
<circle cx="369.396" cy="353.036" r="7.04955" transform="rotate(-180 369.396 353.036)" fill="#11318A"/>
<circle cx="369.396" cy="324.838" r="7.7545" transform="rotate(-180 369.396 324.838)" fill="#11318A"/>
<circle cx="341.198" cy="1500.81" r="1.40991" fill="#11318A"/>
<circle cx="341.198" cy="59.0699" r="2.11486" fill="#11318A"/>
<circle cx="341.198" cy="83.0383" r="2.81982" fill="#11318A"/>
<circle cx="341.198" cy="107.712" r="3.52477" fill="#11318A"/>
<circle cx="341.198" cy="133.09" r="4.22973" fill="#11318A"/>
<circle cx="341.198" cy="159.173" r="4.93468" fill="#11318A"/>
<circle cx="341.198" cy="185.962" r="5.63964" fill="#11318A"/>
<circle cx="341.198" cy="213.455" r="6.34459" fill="#11318A"/>
<circle cx="341.198" cy="241.653" r="7.04955" fill="#11318A"/>
<circle cx="341.198" cy="269.851" r="7.7545" fill="#11318A"/>
<circle cx="341.198" cy="298.05" r="8.45946" fill="#11318A"/>
<circle cx="341.198" cy="2023.88" r="1.40991" transform="rotate(-180 341.198 2023.88)" fill="#11318A"/>
<circle cx="341.198" cy="535.619" r="2.11486" transform="rotate(-180 341.198 535.619)" fill="#11318A"/>
<circle cx="341.198" cy="511.651" r="2.81982" transform="rotate(-180 341.198 511.651)" fill="#11318A"/>
<circle cx="341.198" cy="486.978" r="3.52477" transform="rotate(-180 341.198 486.978)" fill="#11318A"/>
<circle cx="341.198" cy="461.599" r="4.22973" transform="rotate(-180 341.198 461.599)" fill="#11318A"/>
<circle cx="341.198" cy="435.516" r="4.93468" transform="rotate(-180 341.198 435.516)" fill="#11318A"/>
<circle cx="341.198" cy="408.728" r="5.63964" transform="rotate(-180 341.198 408.728)" fill="#11318A"/>
<circle cx="341.198" cy="381.234" r="6.34459" transform="rotate(-180 341.198 381.234)" fill="#11318A"/>
<circle cx="341.198" cy="353.036" r="7.04955" transform="rotate(-180 341.198 353.036)" fill="#11318A"/>
<circle cx="341.198" cy="324.838" r="7.7545" transform="rotate(-180 341.198 324.838)" fill="#11318A"/>
<circle cx="313" cy="1529" r="1.40991" fill="#11318A"/>
<circle cx="313" cy="87.2681" r="2.11486" fill="#11318A"/>
<circle cx="313" cy="111.237" r="2.81982" fill="#11318A"/>
<circle cx="313" cy="135.91" r="3.52477" fill="#11318A"/>
<circle cx="313" cy="161.288" r="4.22973" fill="#11318A"/>
<circle cx="313" cy="187.372" r="4.93468" fill="#11318A"/>
<circle cx="313" cy="214.16" r="5.63964" fill="#11318A"/>
<circle cx="313" cy="241.653" r="6.34459" fill="#11318A"/>
<circle cx="313" cy="269.851" r="7.04955" fill="#11318A"/>
<circle cx="313" cy="298.05" r="7.7545" fill="#11318A"/>
<circle cx="313" cy="1995.68" r="1.40991" transform="rotate(-180 313 1995.68)" fill="#11318A"/>
<circle cx="313" cy="507.421" r="2.11486" transform="rotate(-180 313 507.421)" fill="#11318A"/>
<circle cx="313" cy="483.453" r="2.81982" transform="rotate(-180 313 483.453)" fill="#11318A"/>
<circle cx="313" cy="458.779" r="3.52477" transform="rotate(-180 313 458.779)" fill="#11318A"/>
<circle cx="313" cy="433.401" r="4.22973" transform="rotate(-180 313 433.401)" fill="#11318A"/>
<circle cx="313" cy="407.318" r="4.93468" transform="rotate(-180 313 407.318)" fill="#11318A"/>
<circle cx="313" cy="380.529" r="5.63964" transform="rotate(-180 313 380.529)" fill="#11318A"/>
<circle cx="313" cy="353.036" r="6.34459" transform="rotate(-180 313 353.036)" fill="#11318A"/>
<circle cx="313" cy="324.838" r="7.04955" transform="rotate(-180 313 324.838)" fill="#11318A"/>
<circle cx="284.802" cy="1529" r="1.40991" fill="#11318A"/>
<circle cx="284.802" cy="87.2681" r="2.11486" fill="#11318A"/>
<circle cx="284.802" cy="111.237" r="2.81982" fill="#11318A"/>
<circle cx="284.802" cy="135.91" r="3.52477" fill="#11318A"/>
<circle cx="284.802" cy="161.288" r="4.22973" fill="#11318A"/>
<circle cx="284.802" cy="187.372" r="4.93468" fill="#11318A"/>
<circle cx="284.802" cy="214.16" r="5.63964" fill="#11318A"/>
<circle cx="284.802" cy="241.653" r="6.34459" fill="#11318A"/>
<circle cx="284.802" cy="269.851" r="7.04955" fill="#11318A"/>
<circle cx="284.802" cy="298.05" r="7.7545" fill="#11318A"/>
<circle cx="284.802" cy="1995.68" r="1.40991" transform="rotate(-180 284.802 1995.68)" fill="#11318A"/>
<circle cx="284.802" cy="507.421" r="2.11486" transform="rotate(-180 284.802 507.421)" fill="#11318A"/>
<circle cx="284.802" cy="483.453" r="2.81982" transform="rotate(-180 284.802 483.453)" fill="#11318A"/>
<circle cx="284.802" cy="458.779" r="3.52477" transform="rotate(-180 284.802 458.779)" fill="#11318A"/>
<circle cx="284.802" cy="433.401" r="4.22973" transform="rotate(-180 284.802 433.401)" fill="#11318A"/>
<circle cx="284.802" cy="407.318" r="4.93468" transform="rotate(-180 284.802 407.318)" fill="#11318A"/>
<circle cx="284.802" cy="380.529" r="5.63964" transform="rotate(-180 284.802 380.529)" fill="#11318A"/>
<circle cx="284.802" cy="353.036" r="6.34459" transform="rotate(-180 284.802 353.036)" fill="#11318A"/>
<circle cx="284.802" cy="324.838" r="7.04955" transform="rotate(-180 284.802 324.838)" fill="#11318A"/>
<circle cx="256.604" cy="1557.2" r="1.40991" fill="#11318A"/>
<circle cx="256.604" cy="115.466" r="2.11486" fill="#11318A"/>
<circle cx="256.604" cy="139.435" r="2.81982" fill="#11318A"/>
<circle cx="256.604" cy="164.108" r="3.52477" fill="#11318A"/>
<circle cx="256.604" cy="189.487" r="4.22973" fill="#11318A"/>
<circle cx="256.604" cy="215.57" r="4.93468" fill="#11318A"/>
<circle cx="256.604" cy="242.358" r="5.63964" fill="#11318A"/>
<circle cx="256.604" cy="269.851" r="6.34459" fill="#11318A"/>
<circle cx="256.604" cy="298.05" r="7.04955" fill="#11318A"/>
<circle cx="256.604" cy="1967.49" r="1.40991" transform="rotate(-180 256.604 1967.49)" fill="#11318A"/>
<circle cx="256.604" cy="479.223" r="2.11486" transform="rotate(-180 256.604 479.223)" fill="#11318A"/>
<circle cx="256.604" cy="455.255" r="2.81982" transform="rotate(-180 256.604 455.255)" fill="#11318A"/>
<circle cx="256.604" cy="430.581" r="3.52477" transform="rotate(-180 256.604 430.581)" fill="#11318A"/>
<circle cx="256.604" cy="405.203" r="4.22973" transform="rotate(-180 256.604 405.203)" fill="#11318A"/>
<circle cx="256.604" cy="379.119" r="4.93468" transform="rotate(-180 256.604 379.119)" fill="#11318A"/>
<circle cx="256.604" cy="352.331" r="5.63964" transform="rotate(-180 256.604 352.331)" fill="#11318A"/>
<circle cx="256.604" cy="324.838" r="6.34459" transform="rotate(-180 256.604 324.838)" fill="#11318A"/>
<circle cx="172.009" cy="1585.4" r="1.40991" fill="#11318A"/>
<circle cx="172.009" cy="143.664" r="2.11486" fill="#11318A"/>
<circle cx="172.009" cy="167.633" r="2.81982" fill="#11318A"/>
<circle cx="172.009" cy="192.306" r="3.52477" fill="#11318A"/>
<circle cx="172.009" cy="217.685" r="4.22973" fill="#11318A"/>
<circle cx="172.009" cy="243.768" r="4.93468" fill="#11318A"/>
<circle cx="172.009" cy="270.556" r="5.63964" fill="#11318A"/>
<circle cx="172.009" cy="298.05" r="6.34459" fill="#11318A"/>
<circle cx="172.009" cy="1939.29" r="1.40991" transform="rotate(-180 172.009 1939.29)" fill="#11318A"/>
<circle cx="172.009" cy="451.025" r="2.11486" transform="rotate(-180 172.009 451.025)" fill="#11318A"/>
<circle cx="172.009" cy="427.056" r="2.81982" transform="rotate(-180 172.009 427.056)" fill="#11318A"/>
<circle cx="172.009" cy="402.383" r="3.52477" transform="rotate(-180 172.009 402.383)" fill="#11318A"/>
<circle cx="172.009" cy="377.005" r="4.22973" transform="rotate(-180 172.009 377.005)" fill="#11318A"/>
<circle cx="172.009" cy="350.921" r="4.93468" transform="rotate(-180 172.009 350.921)" fill="#11318A"/>
<circle cx="172.009" cy="324.133" r="5.63964" transform="rotate(-180 172.009 324.133)" fill="#11318A"/>
<circle cx="228.405" cy="1557.2" r="1.40991" fill="#11318A"/>
<circle cx="228.405" cy="115.466" r="2.11486" fill="#11318A"/>
<circle cx="228.405" cy="139.435" r="2.81982" fill="#11318A"/>
<circle cx="228.405" cy="164.108" r="3.52477" fill="#11318A"/>
<circle cx="228.405" cy="189.487" r="4.22973" fill="#11318A"/>
<circle cx="228.405" cy="215.57" r="4.93468" fill="#11318A"/>
<circle cx="228.405" cy="242.358" r="5.63964" fill="#11318A"/>
<circle cx="228.405" cy="269.851" r="6.34459" fill="#11318A"/>
<circle cx="228.405" cy="298.05" r="7.04955" fill="#11318A"/>
<circle cx="228.405" cy="1967.49" r="1.40991" transform="rotate(-180 228.405 1967.49)" fill="#11318A"/>
<circle cx="228.405" cy="479.223" r="2.11486" transform="rotate(-180 228.405 479.223)" fill="#11318A"/>
<circle cx="228.405" cy="455.255" r="2.81982" transform="rotate(-180 228.405 455.255)" fill="#11318A"/>
<circle cx="228.405" cy="430.581" r="3.52477" transform="rotate(-180 228.405 430.581)" fill="#11318A"/>
<circle cx="228.405" cy="405.203" r="4.22973" transform="rotate(-180 228.405 405.203)" fill="#11318A"/>
<circle cx="228.405" cy="379.119" r="4.93468" transform="rotate(-180 228.405 379.119)" fill="#11318A"/>
<circle cx="228.405" cy="352.331" r="5.63964" transform="rotate(-180 228.405 352.331)" fill="#11318A"/>
<circle cx="228.405" cy="324.838" r="6.34459" transform="rotate(-180 228.405 324.838)" fill="#11318A"/>
<circle cx="200.207" cy="1585.4" r="1.40991" fill="#11318A"/>
<circle cx="200.207" cy="143.664" r="2.11486" fill="#11318A"/>
<circle cx="200.207" cy="167.633" r="2.81982" fill="#11318A"/>
<circle cx="200.207" cy="192.306" r="3.52477" fill="#11318A"/>
<circle cx="200.207" cy="217.685" r="4.22973" fill="#11318A"/>
<circle cx="200.207" cy="243.768" r="4.93468" fill="#11318A"/>
<circle cx="200.207" cy="270.556" r="5.63964" fill="#11318A"/>
<circle cx="200.207" cy="298.05" r="6.34459" fill="#11318A"/>
<circle cx="200.207" cy="1939.29" r="1.40991" transform="rotate(-180 200.207 1939.29)" fill="#11318A"/>
<circle cx="200.207" cy="451.025" r="2.11486" transform="rotate(-180 200.207 451.025)" fill="#11318A"/>
<circle cx="200.207" cy="427.056" r="2.81982" transform="rotate(-180 200.207 427.056)" fill="#11318A"/>
<circle cx="200.207" cy="402.383" r="3.52477" transform="rotate(-180 200.207 402.383)" fill="#11318A"/>
<circle cx="200.207" cy="377.005" r="4.22973" transform="rotate(-180 200.207 377.005)" fill="#11318A"/>
<circle cx="200.207" cy="350.921" r="4.93468" transform="rotate(-180 200.207 350.921)" fill="#11318A"/>
<circle cx="200.207" cy="324.133" r="5.63964" transform="rotate(-180 200.207 324.133)" fill="#11318A"/>
<circle cx="143.811" cy="1612.19" r="1.40991" fill="#11318A"/>
<circle cx="143.811" cy="170.453" r="2.11486" fill="#11318A"/>
<circle cx="143.811" cy="194.421" r="2.81982" fill="#11318A"/>
<circle cx="143.811" cy="219.095" r="3.52477" fill="#11318A"/>
<circle cx="143.811" cy="244.473" r="4.22973" fill="#11318A"/>
<circle cx="143.811" cy="270.556" r="4.93468" fill="#11318A"/>
<circle cx="143.811" cy="297.345" r="5.63964" fill="#11318A"/>
<circle cx="143.811" cy="1913.91" r="1.40991" transform="rotate(-180 143.811 1913.91)" fill="#11318A"/>
<circle cx="143.811" cy="425.646" r="2.11486" transform="rotate(-180 143.811 425.646)" fill="#11318A"/>
<circle cx="143.811" cy="401.678" r="2.81982" transform="rotate(-180 143.811 401.678)" fill="#11318A"/>
<circle cx="143.811" cy="377.005" r="3.52477" transform="rotate(-180 143.811 377.005)" fill="#11318A"/>
<circle cx="143.811" cy="351.626" r="4.22973" transform="rotate(-180 143.811 351.626)" fill="#11318A"/>
<circle cx="143.811" cy="325.543" r="4.93468" transform="rotate(-180 143.811 325.543)" fill="#11318A"/>
<circle cx="115.613" cy="1612.19" r="1.40991" fill="#11318A"/>
<circle cx="115.613" cy="170.453" r="2.11486" fill="#11318A"/>
<circle cx="115.613" cy="194.421" r="2.81982" fill="#11318A"/>
<circle cx="115.613" cy="219.095" r="3.52477" fill="#11318A"/>
<circle cx="115.613" cy="244.473" r="4.22973" fill="#11318A"/>
<circle cx="115.613" cy="270.556" r="4.93468" fill="#11318A"/>
<circle cx="115.613" cy="297.345" r="5.63964" fill="#11318A"/>
<circle cx="115.613" cy="1913.91" r="1.40991" transform="rotate(-180 115.613 1913.91)" fill="#11318A"/>
<circle cx="115.613" cy="425.646" r="2.11486" transform="rotate(-180 115.613 425.646)" fill="#11318A"/>
<circle cx="115.613" cy="401.678" r="2.81982" transform="rotate(-180 115.613 401.678)" fill="#11318A"/>
<circle cx="115.613" cy="377.005" r="3.52477" transform="rotate(-180 115.613 377.005)" fill="#11318A"/>
<circle cx="115.613" cy="351.626" r="4.22973" transform="rotate(-180 115.613 351.626)" fill="#11318A"/>
<circle cx="115.613" cy="325.543" r="4.93468" transform="rotate(-180 115.613 325.543)" fill="#11318A"/>
<circle cx="87.4144" cy="1640.39" r="1.40991" fill="#11318A"/>
<circle cx="87.4144" cy="198.651" r="2.11486" fill="#11318A"/>
<circle cx="87.4144" cy="222.619" r="2.81982" fill="#11318A"/>
<circle cx="87.4144" cy="247.293" r="3.52477" fill="#11318A"/>
<circle cx="87.4144" cy="272.671" r="4.22973" fill="#11318A"/>
<circle cx="87.4144" cy="298.755" r="4.93468" fill="#11318A"/>
<circle cx="87.4144" cy="1885.71" r="1.40991" transform="rotate(-180 87.4144 1885.71)" fill="#11318A"/>
<circle cx="87.4144" cy="397.448" r="2.11486" transform="rotate(-180 87.4144 397.448)" fill="#11318A"/>
<circle cx="87.4144" cy="373.48" r="2.81982" transform="rotate(-180 87.4144 373.48)" fill="#11318A"/>
<circle cx="87.4144" cy="348.806" r="3.52477" transform="rotate(-180 87.4144 348.806)" fill="#11318A"/>
<circle cx="87.4144" cy="323.428" r="4.22973" transform="rotate(-180 87.4144 323.428)" fill="#11318A"/>
<circle cx="59.2162" cy="1640.39" r="1.40991" fill="#11318A"/>
<circle cx="59.2162" cy="198.651" r="2.11486" fill="#11318A"/>
<circle cx="59.2162" cy="222.619" r="2.81982" fill="#11318A"/>
<circle cx="59.2162" cy="247.293" r="3.52477" fill="#11318A"/>
<circle cx="59.2162" cy="272.671" r="4.22973" fill="#11318A"/>
<circle cx="59.2162" cy="298.755" r="4.93468" fill="#11318A"/>
<circle cx="59.2162" cy="1885.71" r="1.40991" transform="rotate(-180 59.2162 1885.71)" fill="#11318A"/>
<circle cx="59.2162" cy="397.448" r="2.11486" transform="rotate(-180 59.2162 397.448)" fill="#11318A"/>
<circle cx="59.2162" cy="373.48" r="2.81982" transform="rotate(-180 59.2162 373.48)" fill="#11318A"/>
<circle cx="59.2162" cy="348.806" r="3.52477" transform="rotate(-180 59.2162 348.806)" fill="#11318A"/>
<circle cx="59.2162" cy="323.428" r="4.22973" transform="rotate(-180 59.2162 323.428)" fill="#11318A"/>
<circle cx="32.428" cy="1666.47" r="1.40991" fill="#11318A"/>
<circle cx="32.428" cy="224.734" r="2.11486" fill="#11318A"/>
<circle cx="32.428" cy="248.703" r="2.81982" fill="#11318A"/>
<circle cx="32.428" cy="273.376" r="3.52477" fill="#11318A"/>
<circle cx="32.428" cy="298.755" r="4.22973" fill="#11318A"/>
<circle cx="32.428" cy="1864.56" r="1.40991" transform="rotate(-180 32.428 1864.56)" fill="#11318A"/>
<circle cx="32.428" cy="376.3" r="2.11486" transform="rotate(-180 32.428 376.3)" fill="#11318A"/>
<circle cx="32.428" cy="352.331" r="2.81982" transform="rotate(-180 32.428 352.331)" fill="#11318A"/>
<circle cx="32.428" cy="327.658" r="3.52477" transform="rotate(-180 32.428 327.658)" fill="#11318A"/>
<circle cx="4.22973" cy="1666.47" r="1.40991" fill="#11318A"/>
<circle cx="4.22973" cy="224.734" r="2.11486" fill="#11318A"/>
<circle cx="4.22973" cy="248.703" r="2.81982" fill="#11318A"/>
<circle cx="4.22973" cy="273.376" r="3.52477" fill="#11318A"/>
<circle cx="4.22973" cy="298.755" r="4.22973" fill="#11318A"/>
<circle cx="4.22974" cy="1864.56" r="1.40991" transform="rotate(-180 4.22974 1864.56)" fill="#11318A"/>
<circle cx="4.22974" cy="376.3" r="2.11486" transform="rotate(-180 4.22974 376.3)" fill="#11318A"/>
<circle cx="4.22974" cy="352.331" r="2.81982" transform="rotate(-180 4.22974 352.331)" fill="#11318A"/>
<circle cx="4.22974" cy="327.658" r="3.52477" transform="rotate(-180 4.22974 327.658)" fill="#11318A"/>
<circle cx="32.428" cy="1666.47" r="1.40991" fill="#11318A"/>
<circle cx="32.428" cy="224.734" r="2.11486" fill="#11318A"/>
<circle cx="32.428" cy="248.703" r="2.81982" fill="#11318A"/>
<circle cx="32.428" cy="273.376" r="3.52477" fill="#11318A"/>
<circle cx="32.428" cy="298.755" r="4.22973" fill="#11318A"/>
<circle cx="32.428" cy="1864.56" r="1.40991" transform="rotate(-180 32.428 1864.56)" fill="#11318A"/>
<circle cx="32.428" cy="376.3" r="2.11486" transform="rotate(-180 32.428 376.3)" fill="#11318A"/>
<circle cx="32.428" cy="352.331" r="2.81982" transform="rotate(-180 32.428 352.331)" fill="#11318A"/>
<circle cx="32.428" cy="327.658" r="3.52477" transform="rotate(-180 32.428 327.658)" fill="#11318A"/>
<circle cx="934.77" cy="1666.47" r="1.40991" fill="#11318A"/>
<circle cx="934.77" cy="224.734" r="2.11486" fill="#11318A"/>
<circle cx="934.77" cy="248.703" r="2.81982" fill="#11318A"/>
<circle cx="934.77" cy="273.376" r="3.52477" fill="#11318A"/>
<circle cx="934.77" cy="298.755" r="4.22973" fill="#11318A"/>
<circle cx="934.77" cy="1864.56" r="1.40991" transform="rotate(-180 934.77 1864.56)" fill="#11318A"/>
<circle cx="934.77" cy="376.3" r="2.11486" transform="rotate(-180 934.77 376.3)" fill="#11318A"/>
<circle cx="934.77" cy="352.331" r="2.81982" transform="rotate(-180 934.77 352.331)" fill="#11318A"/>
<circle cx="934.77" cy="327.658" r="3.52477" transform="rotate(-180 934.77 327.658)" fill="#11318A"/>
<circle cx="906.572" cy="1666.47" r="1.40991" fill="#11318A"/>
<circle cx="906.572" cy="224.734" r="2.11486" fill="#11318A"/>
<circle cx="906.572" cy="248.703" r="2.81982" fill="#11318A"/>
<circle cx="906.572" cy="273.376" r="3.52477" fill="#11318A"/>
<circle cx="906.572" cy="298.755" r="4.22973" fill="#11318A"/>
<circle cx="906.572" cy="1864.56" r="1.40991" transform="rotate(-180 906.572 1864.56)" fill="#11318A"/>
<circle cx="906.572" cy="376.3" r="2.11486" transform="rotate(-180 906.572 376.3)" fill="#11318A"/>
<circle cx="906.572" cy="352.331" r="2.81982" transform="rotate(-180 906.572 352.331)" fill="#11318A"/>
<circle cx="906.572" cy="327.658" r="3.52477" transform="rotate(-180 906.572 327.658)" fill="#11318A"/>
<circle cx="934.77" cy="1666.47" r="1.40991" fill="#11318A"/>
<circle cx="934.77" cy="224.734" r="2.11486" fill="#11318A"/>
<circle cx="934.77" cy="248.703" r="2.81982" fill="#11318A"/>
<circle cx="934.77" cy="273.376" r="3.52477" fill="#11318A"/>
<circle cx="934.77" cy="298.755" r="4.22973" fill="#11318A"/>
<circle cx="934.77" cy="1864.56" r="1.40991" transform="rotate(-180 934.77 1864.56)" fill="#11318A"/>
<circle cx="934.77" cy="376.3" r="2.11486" transform="rotate(-180 934.77 376.3)" fill="#11318A"/>
<circle cx="934.77" cy="352.331" r="2.81982" transform="rotate(-180 934.77 352.331)" fill="#11318A"/>
<circle cx="934.77" cy="327.658" r="3.52477" transform="rotate(-180 934.77 327.658)" fill="#11318A"/>
<circle cx="876.964" cy="1639.68" r="1.40991" fill="#11318A"/>
<circle cx="876.964" cy="197.946" r="2.11486" fill="#11318A"/>
<circle cx="876.964" cy="221.914" r="2.81982" fill="#11318A"/>
<circle cx="876.964" cy="246.588" r="3.52477" fill="#11318A"/>
<circle cx="876.964" cy="271.966" r="4.22973" fill="#11318A"/>
<circle cx="876.964" cy="298.05" r="4.93468" fill="#11318A"/>
<circle cx="876.964" cy="1885.01" r="1.40991" transform="rotate(-180 876.964 1885.01)" fill="#11318A"/>
<circle cx="876.964" cy="396.743" r="2.11486" transform="rotate(-180 876.964 396.743)" fill="#11318A"/>
<circle cx="876.964" cy="372.775" r="2.81982" transform="rotate(-180 876.964 372.775)" fill="#11318A"/>
<circle cx="876.964" cy="348.101" r="3.52477" transform="rotate(-180 876.964 348.101)" fill="#11318A"/>
<circle cx="876.964" cy="322.723" r="4.22973" transform="rotate(-180 876.964 322.723)" fill="#11318A"/>
<circle cx="848.766" cy="1639.68" r="1.40991" fill="#11318A"/>
<circle cx="848.766" cy="197.946" r="2.11486" fill="#11318A"/>
<circle cx="848.766" cy="221.914" r="2.81982" fill="#11318A"/>
<circle cx="848.766" cy="246.588" r="3.52477" fill="#11318A"/>
<circle cx="848.766" cy="271.966" r="4.22973" fill="#11318A"/>
<circle cx="848.766" cy="298.05" r="4.93468" fill="#11318A"/>
<circle cx="848.766" cy="1885.01" r="1.40991" transform="rotate(-180 848.766 1885.01)" fill="#11318A"/>
<circle cx="848.766" cy="396.743" r="2.11486" transform="rotate(-180 848.766 396.743)" fill="#11318A"/>
<circle cx="848.766" cy="372.775" r="2.81982" transform="rotate(-180 848.766 372.775)" fill="#11318A"/>
<circle cx="848.766" cy="348.101" r="3.52477" transform="rotate(-180 848.766 348.101)" fill="#11318A"/>
<circle cx="848.766" cy="322.723" r="4.22973" transform="rotate(-180 848.766 322.723)" fill="#11318A"/>
<circle cx="820.568" cy="1611.48" r="1.40991" fill="#11318A"/>
<circle cx="820.568" cy="169.748" r="2.11486" fill="#11318A"/>
<circle cx="820.568" cy="193.716" r="2.81982" fill="#11318A"/>
<circle cx="820.568" cy="218.39" r="3.52477" fill="#11318A"/>
<circle cx="820.568" cy="243.768" r="4.22973" fill="#11318A"/>
<circle cx="820.568" cy="269.851" r="4.93468" fill="#11318A"/>
<circle cx="820.568" cy="296.64" r="5.63964" fill="#11318A"/>
<circle cx="820.568" cy="1913.2" r="1.40991" transform="rotate(-180 820.568 1913.2)" fill="#11318A"/>
<circle cx="820.568" cy="424.941" r="2.11486" transform="rotate(-180 820.568 424.941)" fill="#11318A"/>
<circle cx="820.568" cy="400.973" r="2.81982" transform="rotate(-180 820.568 400.973)" fill="#11318A"/>
<circle cx="820.568" cy="376.3" r="3.52477" transform="rotate(-180 820.568 376.3)" fill="#11318A"/>
<circle cx="820.568" cy="350.921" r="4.22973" transform="rotate(-180 820.568 350.921)" fill="#11318A"/>
<circle cx="820.568" cy="324.838" r="4.93468" transform="rotate(-180 820.568 324.838)" fill="#11318A"/>
<circle cx="792.369" cy="1611.48" r="1.40991" fill="#11318A"/>
<circle cx="792.369" cy="169.748" r="2.11486" fill="#11318A"/>
<circle cx="792.369" cy="193.716" r="2.81982" fill="#11318A"/>
<circle cx="792.369" cy="218.39" r="3.52477" fill="#11318A"/>
<circle cx="792.369" cy="243.768" r="4.22973" fill="#11318A"/>
<circle cx="792.369" cy="269.851" r="4.93468" fill="#11318A"/>
<circle cx="792.369" cy="296.64" r="5.63964" fill="#11318A"/>
<circle cx="792.369" cy="1913.2" r="1.40991" transform="rotate(-180 792.369 1913.2)" fill="#11318A"/>
<circle cx="792.369" cy="424.941" r="2.11486" transform="rotate(-180 792.369 424.941)" fill="#11318A"/>
<circle cx="792.369" cy="400.973" r="2.81982" transform="rotate(-180 792.369 400.973)" fill="#11318A"/>
<circle cx="792.369" cy="376.3" r="3.52477" transform="rotate(-180 792.369 376.3)" fill="#11318A"/>
<circle cx="792.369" cy="350.921" r="4.22973" transform="rotate(-180 792.369 350.921)" fill="#11318A"/>
<circle cx="792.369" cy="324.838" r="4.93468" transform="rotate(-180 792.369 324.838)" fill="#11318A"/>
<circle cx="764.171" cy="1585.4" r="1.40991" fill="#11318A"/>
<circle cx="764.171" cy="143.664" r="2.11486" fill="#11318A"/>
<circle cx="764.171" cy="167.633" r="2.81982" fill="#11318A"/>
<circle cx="764.171" cy="192.306" r="3.52477" fill="#11318A"/>
<circle cx="764.171" cy="217.685" r="4.22973" fill="#11318A"/>
<circle cx="764.171" cy="243.768" r="4.93468" fill="#11318A"/>
<circle cx="764.171" cy="270.556" r="5.63964" fill="#11318A"/>
<circle cx="764.171" cy="298.05" r="6.34459" fill="#11318A"/>
<circle cx="764.171" cy="1939.29" r="1.40991" transform="rotate(-180 764.171 1939.29)" fill="#11318A"/>
<circle cx="764.171" cy="451.025" r="2.11486" transform="rotate(-180 764.171 451.025)" fill="#11318A"/>
<circle cx="764.171" cy="427.056" r="2.81982" transform="rotate(-180 764.171 427.056)" fill="#11318A"/>
<circle cx="764.171" cy="402.383" r="3.52477" transform="rotate(-180 764.171 402.383)" fill="#11318A"/>
<circle cx="764.171" cy="377.005" r="4.22973" transform="rotate(-180 764.171 377.005)" fill="#11318A"/>
<circle cx="764.171" cy="350.921" r="4.93468" transform="rotate(-180 764.171 350.921)" fill="#11318A"/>
<circle cx="764.171" cy="324.133" r="5.63964" transform="rotate(-180 764.171 324.133)" fill="#11318A"/>
<circle cx="735.973" cy="1585.4" r="1.40991" fill="#11318A"/>
<circle cx="735.973" cy="143.664" r="2.11486" fill="#11318A"/>
<circle cx="735.973" cy="167.633" r="2.81982" fill="#11318A"/>
<circle cx="735.973" cy="192.306" r="3.52477" fill="#11318A"/>
<circle cx="735.973" cy="217.685" r="4.22973" fill="#11318A"/>
<circle cx="735.973" cy="243.768" r="4.93468" fill="#11318A"/>
<circle cx="735.973" cy="270.556" r="5.63964" fill="#11318A"/>
<circle cx="735.973" cy="298.05" r="6.34459" fill="#11318A"/>
<circle cx="735.973" cy="1939.29" r="1.40991" transform="rotate(-180 735.973 1939.29)" fill="#11318A"/>
<circle cx="735.973" cy="451.025" r="2.11486" transform="rotate(-180 735.973 451.025)" fill="#11318A"/>
<circle cx="735.973" cy="427.056" r="2.81982" transform="rotate(-180 735.973 427.056)" fill="#11318A"/>
<circle cx="735.973" cy="402.383" r="3.52477" transform="rotate(-180 735.973 402.383)" fill="#11318A"/>
<circle cx="735.973" cy="377.005" r="4.22973" transform="rotate(-180 735.973 377.005)" fill="#11318A"/>
<circle cx="735.973" cy="350.921" r="4.93468" transform="rotate(-180 735.973 350.921)" fill="#11318A"/>
<circle cx="735.973" cy="324.133" r="5.63964" transform="rotate(-180 735.973 324.133)" fill="#11318A"/>
<circle cx="707.775" cy="1557.2" r="1.40991" fill="#11318A"/>
<circle cx="707.775" cy="115.466" r="2.11486" fill="#11318A"/>
<circle cx="707.775" cy="139.435" r="2.81982" fill="#11318A"/>
<circle cx="707.775" cy="164.108" r="3.52477" fill="#11318A"/>
<circle cx="707.775" cy="189.487" r="4.22973" fill="#11318A"/>
<circle cx="707.775" cy="215.57" r="4.93468" fill="#11318A"/>
<circle cx="707.775" cy="242.358" r="5.63964" fill="#11318A"/>
<circle cx="707.775" cy="269.851" r="6.34459" fill="#11318A"/>
<circle cx="707.775" cy="298.05" r="7.04955" fill="#11318A"/>
<circle cx="707.775" cy="1967.49" r="1.40991" transform="rotate(-180 707.775 1967.49)" fill="#11318A"/>
<circle cx="707.775" cy="479.223" r="2.11486" transform="rotate(-180 707.775 479.223)" fill="#11318A"/>
<circle cx="707.775" cy="455.255" r="2.81982" transform="rotate(-180 707.775 455.255)" fill="#11318A"/>
<circle cx="707.775" cy="430.581" r="3.52477" transform="rotate(-180 707.775 430.581)" fill="#11318A"/>
<circle cx="707.775" cy="405.203" r="4.22973" transform="rotate(-180 707.775 405.203)" fill="#11318A"/>
<circle cx="707.775" cy="379.119" r="4.93468" transform="rotate(-180 707.775 379.119)" fill="#11318A"/>
<circle cx="707.775" cy="352.331" r="5.63964" transform="rotate(-180 707.775 352.331)" fill="#11318A"/>
<circle cx="707.775" cy="324.838" r="6.34459" transform="rotate(-180 707.775 324.838)" fill="#11318A"/>
<circle cx="679.577" cy="1557.2" r="1.40991" fill="#11318A"/>
<circle cx="679.577" cy="115.466" r="2.11486" fill="#11318A"/>
<circle cx="679.577" cy="139.435" r="2.81982" fill="#11318A"/>
<circle cx="679.577" cy="164.108" r="3.52477" fill="#11318A"/>
<circle cx="679.577" cy="189.487" r="4.22973" fill="#11318A"/>
<circle cx="679.577" cy="215.57" r="4.93468" fill="#11318A"/>
<circle cx="679.577" cy="242.358" r="5.63964" fill="#11318A"/>
<circle cx="679.577" cy="269.851" r="6.34459" fill="#11318A"/>
<circle cx="679.577" cy="298.05" r="7.04955" fill="#11318A"/>
<circle cx="679.577" cy="1967.49" r="1.40991" transform="rotate(-180 679.577 1967.49)" fill="#11318A"/>
<circle cx="679.577" cy="479.223" r="2.11486" transform="rotate(-180 679.577 479.223)" fill="#11318A"/>
<circle cx="679.577" cy="455.255" r="2.81982" transform="rotate(-180 679.577 455.255)" fill="#11318A"/>
<circle cx="679.577" cy="430.581" r="3.52477" transform="rotate(-180 679.577 430.581)" fill="#11318A"/>
<circle cx="679.577" cy="405.203" r="4.22973" transform="rotate(-180 679.577 405.203)" fill="#11318A"/>
<circle cx="679.577" cy="379.119" r="4.93468" transform="rotate(-180 679.577 379.119)" fill="#11318A"/>
<circle cx="679.577" cy="352.331" r="5.63964" transform="rotate(-180 679.577 352.331)" fill="#11318A"/>
<circle cx="679.577" cy="324.838" r="6.34459" transform="rotate(-180 679.577 324.838)" fill="#11318A"/>
<circle cx="651.378" cy="1529" r="1.40991" fill="#11318A"/>
<circle cx="651.378" cy="87.2681" r="2.11486" fill="#11318A"/>
<circle cx="651.378" cy="111.237" r="2.81982" fill="#11318A"/>
<circle cx="651.378" cy="135.91" r="3.52477" fill="#11318A"/>
<circle cx="651.378" cy="161.288" r="4.22973" fill="#11318A"/>
<circle cx="651.378" cy="187.372" r="4.93468" fill="#11318A"/>
<circle cx="651.378" cy="214.16" r="5.63964" fill="#11318A"/>
<circle cx="651.378" cy="241.653" r="6.34459" fill="#11318A"/>
<circle cx="651.378" cy="269.851" r="7.04955" fill="#11318A"/>
<circle cx="651.378" cy="298.05" r="7.7545" fill="#11318A"/>
<circle cx="651.378" cy="1995.68" r="1.40991" transform="rotate(-180 651.378 1995.68)" fill="#11318A"/>
<circle cx="651.378" cy="507.421" r="2.11486" transform="rotate(-180 651.378 507.421)" fill="#11318A"/>
<circle cx="651.378" cy="483.453" r="2.81982" transform="rotate(-180 651.378 483.453)" fill="#11318A"/>
<circle cx="651.378" cy="458.779" r="3.52477" transform="rotate(-180 651.378 458.779)" fill="#11318A"/>
<circle cx="651.378" cy="433.401" r="4.22973" transform="rotate(-180 651.378 433.401)" fill="#11318A"/>
<circle cx="651.378" cy="407.318" r="4.93468" transform="rotate(-180 651.378 407.318)" fill="#11318A"/>
<circle cx="651.378" cy="380.529" r="5.63964" transform="rotate(-180 651.378 380.529)" fill="#11318A"/>
<circle cx="651.378" cy="353.036" r="6.34459" transform="rotate(-180 651.378 353.036)" fill="#11318A"/>
<circle cx="651.378" cy="324.838" r="7.04955" transform="rotate(-180 651.378 324.838)" fill="#11318A"/>
<circle cx="623.18" cy="1529" r="1.40991" fill="#11318A"/>
<circle cx="623.18" cy="87.2681" r="2.11486" fill="#11318A"/>
<circle cx="623.18" cy="111.237" r="2.81982" fill="#11318A"/>
<circle cx="623.18" cy="135.91" r="3.52477" fill="#11318A"/>
<circle cx="623.18" cy="161.288" r="4.22973" fill="#11318A"/>
<circle cx="623.18" cy="187.372" r="4.93468" fill="#11318A"/>
<circle cx="623.18" cy="214.16" r="5.63964" fill="#11318A"/>
<circle cx="623.18" cy="241.653" r="6.34459" fill="#11318A"/>
<circle cx="623.18" cy="269.851" r="7.04955" fill="#11318A"/>
<circle cx="623.18" cy="298.05" r="7.7545" fill="#11318A"/>
<circle cx="623.18" cy="1995.68" r="1.40991" transform="rotate(-180 623.18 1995.68)" fill="#11318A"/>
<circle cx="623.18" cy="507.421" r="2.11486" transform="rotate(-180 623.18 507.421)" fill="#11318A"/>
<circle cx="623.18" cy="483.453" r="2.81982" transform="rotate(-180 623.18 483.453)" fill="#11318A"/>
<circle cx="623.18" cy="458.779" r="3.52477" transform="rotate(-180 623.18 458.779)" fill="#11318A"/>
<circle cx="623.18" cy="433.401" r="4.22973" transform="rotate(-180 623.18 433.401)" fill="#11318A"/>
<circle cx="623.18" cy="407.318" r="4.93468" transform="rotate(-180 623.18 407.318)" fill="#11318A"/>
<circle cx="623.18" cy="380.529" r="5.63964" transform="rotate(-180 623.18 380.529)" fill="#11318A"/>
<circle cx="623.18" cy="353.036" r="6.34459" transform="rotate(-180 623.18 353.036)" fill="#11318A"/>
<circle cx="623.18" cy="324.838" r="7.04955" transform="rotate(-180 623.18 324.838)" fill="#11318A"/>
<circle cx="594.982" cy="1500.81" r="1.40991" fill="#11318A"/>
<circle cx="594.982" cy="59.0699" r="2.11486" fill="#11318A"/>
<circle cx="594.982" cy="83.0383" r="2.81982" fill="#11318A"/>
<circle cx="594.982" cy="107.712" r="3.52477" fill="#11318A"/>
<circle cx="594.982" cy="133.09" r="4.22973" fill="#11318A"/>
<circle cx="594.982" cy="159.173" r="4.93468" fill="#11318A"/>
<circle cx="594.982" cy="185.962" r="5.63964" fill="#11318A"/>
<circle cx="594.982" cy="213.455" r="6.34459" fill="#11318A"/>
<circle cx="594.982" cy="241.653" r="7.04955" fill="#11318A"/>
<circle cx="594.982" cy="269.851" r="7.7545" fill="#11318A"/>
<circle cx="594.982" cy="298.05" r="8.45946" fill="#11318A"/>
<circle cx="594.982" cy="2023.88" r="1.40991" transform="rotate(-180 594.982 2023.88)" fill="#11318A"/>
<circle cx="594.982" cy="535.619" r="2.11486" transform="rotate(-180 594.982 535.619)" fill="#11318A"/>
<circle cx="594.982" cy="511.651" r="2.81982" transform="rotate(-180 594.982 511.651)" fill="#11318A"/>
<circle cx="594.982" cy="486.978" r="3.52477" transform="rotate(-180 594.982 486.978)" fill="#11318A"/>
<circle cx="594.982" cy="461.599" r="4.22973" transform="rotate(-180 594.982 461.599)" fill="#11318A"/>
<circle cx="594.982" cy="435.516" r="4.93468" transform="rotate(-180 594.982 435.516)" fill="#11318A"/>
<circle cx="594.982" cy="408.728" r="5.63964" transform="rotate(-180 594.982 408.728)" fill="#11318A"/>
<circle cx="594.982" cy="381.234" r="6.34459" transform="rotate(-180 594.982 381.234)" fill="#11318A"/>
<circle cx="594.982" cy="353.036" r="7.04955" transform="rotate(-180 594.982 353.036)" fill="#11318A"/>
<circle cx="594.982" cy="324.838" r="7.7545" transform="rotate(-180 594.982 324.838)" fill="#11318A"/>
<circle cx="566.784" cy="1500.81" r="1.40991" fill="#11318A"/>
<circle cx="566.784" cy="59.0699" r="2.11486" fill="#11318A"/>
<circle cx="566.784" cy="83.0383" r="2.81982" fill="#11318A"/>
<circle cx="566.784" cy="107.712" r="3.52477" fill="#11318A"/>
<circle cx="566.784" cy="133.09" r="4.22973" fill="#11318A"/>
<circle cx="566.784" cy="159.173" r="4.93468" fill="#11318A"/>
<circle cx="566.784" cy="185.962" r="5.63964" fill="#11318A"/>
<circle cx="566.784" cy="213.455" r="6.34459" fill="#11318A"/>
<circle cx="566.784" cy="241.653" r="7.04955" fill="#11318A"/>
<circle cx="566.784" cy="269.851" r="7.7545" fill="#11318A"/>
<circle cx="566.784" cy="298.05" r="8.45946" fill="#11318A"/>
<circle cx="566.784" cy="2023.88" r="1.40991" transform="rotate(-180 566.784 2023.88)" fill="#11318A"/>
<circle cx="566.784" cy="535.619" r="2.11486" transform="rotate(-180 566.784 535.619)" fill="#11318A"/>
<circle cx="566.784" cy="511.651" r="2.81982" transform="rotate(-180 566.784 511.651)" fill="#11318A"/>
<circle cx="566.784" cy="486.978" r="3.52477" transform="rotate(-180 566.784 486.978)" fill="#11318A"/>
<circle cx="566.784" cy="461.599" r="4.22973" transform="rotate(-180 566.784 461.599)" fill="#11318A"/>
<circle cx="566.784" cy="435.516" r="4.93468" transform="rotate(-180 566.784 435.516)" fill="#11318A"/>
<circle cx="566.784" cy="408.728" r="5.63964" transform="rotate(-180 566.784 408.728)" fill="#11318A"/>
<circle cx="566.784" cy="381.234" r="6.34459" transform="rotate(-180 566.784 381.234)" fill="#11318A"/>
<circle cx="566.784" cy="353.036" r="7.04955" transform="rotate(-180 566.784 353.036)" fill="#11318A"/>
<circle cx="566.784" cy="324.838" r="7.7545" transform="rotate(-180 566.784 324.838)" fill="#11318A"/>
<circle cx="538.586" cy="1472.61" r="1.40991" fill="#11318A"/>
<circle cx="538.586" cy="30.8716" r="2.11486" fill="#11318A"/>
<circle cx="538.586" cy="54.8401" r="2.81982" fill="#11318A"/>
<circle cx="538.586" cy="79.5135" r="3.52477" fill="#11318A"/>
<circle cx="538.586" cy="104.892" r="4.22973" fill="#11318A"/>
<circle cx="538.586" cy="130.975" r="4.93468" fill="#11318A"/>
<circle cx="538.586" cy="157.764" r="5.63964" fill="#11318A"/>
<circle cx="538.586" cy="185.257" r="6.34459" fill="#11318A"/>
<circle cx="538.586" cy="213.455" r="7.04955" fill="#11318A"/>
<circle cx="538.586" cy="241.653" r="7.7545" fill="#11318A"/>
<circle cx="538.586" cy="269.851" r="8.45946" fill="#11318A"/>
<circle cx="538.586" cy="298.05" r="9.16441" fill="#11318A"/>
<circle cx="538.586" cy="2052.08" r="1.40991" transform="rotate(-180 538.586 2052.08)" fill="#11318A"/>
<circle cx="538.586" cy="563.818" r="2.11486" transform="rotate(-180 538.586 563.818)" fill="#11318A"/>
<circle cx="538.586" cy="539.849" r="2.81982" transform="rotate(-180 538.586 539.849)" fill="#11318A"/>
<circle cx="538.586" cy="515.176" r="3.52477" transform="rotate(-180 538.586 515.176)" fill="#11318A"/>
<circle cx="538.586" cy="489.797" r="4.22973" transform="rotate(-180 538.586 489.797)" fill="#11318A"/>
<circle cx="538.586" cy="463.714" r="4.93468" transform="rotate(-180 538.586 463.714)" fill="#11318A"/>
<circle cx="538.586" cy="436.926" r="5.63964" transform="rotate(-180 538.586 436.926)" fill="#11318A"/>
<circle cx="538.586" cy="409.432" r="6.34459" transform="rotate(-180 538.586 409.432)" fill="#11318A"/>
<circle cx="538.586" cy="381.234" r="7.04955" transform="rotate(-180 538.586 381.234)" fill="#11318A"/>
<circle cx="538.586" cy="353.036" r="7.7545" transform="rotate(-180 538.586 353.036)" fill="#11318A"/>
<circle cx="538.586" cy="324.838" r="8.45946" transform="rotate(-180 538.586 324.838)" fill="#11318A"/>
<circle cx="510.387" cy="1472.61" r="1.40991" fill="#11318A"/>
<circle cx="510.387" cy="30.8716" r="2.11486" fill="#11318A"/>
<circle cx="510.387" cy="54.8401" r="2.81982" fill="#11318A"/>
<circle cx="510.387" cy="79.5135" r="3.52477" fill="#11318A"/>
<circle cx="510.387" cy="104.892" r="4.22973" fill="#11318A"/>
<circle cx="510.387" cy="130.975" r="4.93468" fill="#11318A"/>
<circle cx="510.387" cy="157.764" r="5.63964" fill="#11318A"/>
<circle cx="510.387" cy="185.257" r="6.34459" fill="#11318A"/>
<circle cx="510.387" cy="213.455" r="7.04955" fill="#11318A"/>
<circle cx="510.387" cy="241.653" r="7.7545" fill="#11318A"/>
<circle cx="510.387" cy="269.851" r="8.45946" fill="#11318A"/>
<circle cx="510.387" cy="298.05" r="9.16441" fill="#11318A"/>
<circle cx="510.387" cy="2052.08" r="1.40991" transform="rotate(-180 510.387 2052.08)" fill="#11318A"/>
<circle cx="510.387" cy="563.818" r="2.11486" transform="rotate(-180 510.387 563.818)" fill="#11318A"/>
<circle cx="510.387" cy="539.849" r="2.81982" transform="rotate(-180 510.387 539.849)" fill="#11318A"/>
<circle cx="510.387" cy="515.176" r="3.52477" transform="rotate(-180 510.387 515.176)" fill="#11318A"/>
<circle cx="510.387" cy="489.797" r="4.22973" transform="rotate(-180 510.387 489.797)" fill="#11318A"/>
<circle cx="510.387" cy="463.714" r="4.93468" transform="rotate(-180 510.387 463.714)" fill="#11318A"/>
<circle cx="510.387" cy="436.926" r="5.63964" transform="rotate(-180 510.387 436.926)" fill="#11318A"/>
<circle cx="510.387" cy="409.432" r="6.34459" transform="rotate(-180 510.387 409.432)" fill="#11318A"/>
<circle cx="510.387" cy="381.234" r="7.04955" transform="rotate(-180 510.387 381.234)" fill="#11318A"/>
<circle cx="510.387" cy="353.036" r="7.7545" transform="rotate(-180 510.387 353.036)" fill="#11318A"/>
<circle cx="510.387" cy="324.838" r="8.45946" transform="rotate(-180 510.387 324.838)" fill="#11318A"/>
</svg>
