<svg width="1440" height="875" viewBox="0 0 1440 875" fill="none" xmlns="http://www.w3.org/2000/svg">
<g filter="url(#filter0_d_166_57)">
<rect width="1440" height="867" fill="#376BF6"/>
<ellipse cx="721.5" cy="421" rx="420.5" ry="421" fill="url(#paint0_radial_166_57)"/>
<g clip-path="url(#clip0_166_57)">
<circle cx="744.516" cy="141.831" r="1.83121" fill="#376BF6"/>
<circle cx="744.516" cy="162.585" r="2.44161" fill="#376BF6"/>
<circle cx="744.516" cy="183.949" r="3.05202" fill="#376BF6"/>
<circle cx="744.516" cy="205.924" r="3.66242" fill="#376BF6"/>
<circle cx="744.516" cy="228.508" r="4.27282" fill="#376BF6"/>
<circle cx="744.516" cy="251.704" r="4.88323" fill="#376BF6"/>
<circle cx="744.516" cy="275.509" r="5.49363" fill="#376BF6"/>
<circle cx="744.516" cy="299.925" r="6.10403" fill="#376BF6"/>
<circle cx="744.516" cy="324.342" r="6.71443" fill="#376BF6"/>
<circle cx="744.516" cy="348.758" r="7.32484" fill="#376BF6"/>
<circle cx="744.516" cy="373.174" r="7.93524" fill="#376BF6"/>
<circle cx="744.516" cy="397.59" r="8.54564" fill="#376BF6"/>
<circle cx="744.516" cy="652.128" r="1.83121" transform="rotate(-180 744.516 652.128)" fill="#376BF6"/>
<circle cx="744.516" cy="631.375" r="2.44161" transform="rotate(-180 744.516 631.375)" fill="#376BF6"/>
<circle cx="744.516" cy="610.01" r="3.05202" transform="rotate(-180 744.516 610.01)" fill="#376BF6"/>
<circle cx="744.516" cy="588.036" r="3.66242" transform="rotate(-180 744.516 588.036)" fill="#376BF6"/>
<circle cx="744.516" cy="565.451" r="4.27282" transform="rotate(-180 744.516 565.451)" fill="#376BF6"/>
<circle cx="744.516" cy="542.256" r="4.88323" transform="rotate(-180 744.516 542.256)" fill="#376BF6"/>
<circle cx="744.516" cy="518.45" r="5.49363" transform="rotate(-180 744.516 518.45)" fill="#376BF6"/>
<circle cx="744.516" cy="494.034" r="6.10403" transform="rotate(-180 744.516 494.034)" fill="#376BF6"/>
<circle cx="744.516" cy="469.618" r="6.71443" transform="rotate(-180 744.516 469.618)" fill="#376BF6"/>
<circle cx="744.516" cy="445.202" r="7.32484" transform="rotate(-180 744.516 445.202)" fill="#376BF6"/>
<circle cx="744.516" cy="420.785" r="7.93524" transform="rotate(-180 744.516 420.785)" fill="#376BF6"/>
<circle cx="720.1" cy="141.831" r="1.83121" fill="#376BF6"/>
<circle cx="720.1" cy="162.585" r="2.44161" fill="#376BF6"/>
<circle cx="720.1" cy="183.949" r="3.05202" fill="#376BF6"/>
<circle cx="720.1" cy="205.924" r="3.66242" fill="#376BF6"/>
<circle cx="720.1" cy="228.508" r="4.27282" fill="#376BF6"/>
<circle cx="720.1" cy="251.704" r="4.88323" fill="#376BF6"/>
<circle cx="720.1" cy="275.509" r="5.49363" fill="#376BF6"/>
<circle cx="720.1" cy="299.925" r="6.10403" fill="#376BF6"/>
<circle cx="720.1" cy="324.342" r="6.71443" fill="#376BF6"/>
<circle cx="720.1" cy="348.758" r="7.32484" fill="#376BF6"/>
<circle cx="720.1" cy="373.174" r="7.93524" fill="#376BF6"/>
<circle cx="720.1" cy="397.59" r="8.54564" fill="#376BF6"/>
<circle cx="720.1" cy="652.128" r="1.83121" transform="rotate(-180 720.1 652.128)" fill="#376BF6"/>
<circle cx="720.1" cy="631.375" r="2.44161" transform="rotate(-180 720.1 631.375)" fill="#376BF6"/>
<circle cx="720.1" cy="610.01" r="3.05202" transform="rotate(-180 720.1 610.01)" fill="#376BF6"/>
<circle cx="720.1" cy="588.036" r="3.66242" transform="rotate(-180 720.1 588.036)" fill="#376BF6"/>
<circle cx="720.1" cy="565.451" r="4.27282" transform="rotate(-180 720.1 565.451)" fill="#376BF6"/>
<circle cx="720.1" cy="542.256" r="4.88323" transform="rotate(-180 720.1 542.256)" fill="#376BF6"/>
<circle cx="720.1" cy="518.45" r="5.49363" transform="rotate(-180 720.1 518.45)" fill="#376BF6"/>
<circle cx="720.1" cy="494.034" r="6.10403" transform="rotate(-180 720.1 494.034)" fill="#376BF6"/>
<circle cx="720.1" cy="469.618" r="6.71443" transform="rotate(-180 720.1 469.618)" fill="#376BF6"/>
<circle cx="720.1" cy="445.202" r="7.32484" transform="rotate(-180 720.1 445.202)" fill="#376BF6"/>
<circle cx="720.1" cy="420.785" r="7.93524" transform="rotate(-180 720.1 420.785)" fill="#376BF6"/>
<circle cx="695.684" cy="166.247" r="1.83121" fill="#376BF6"/>
<circle cx="695.683" cy="187.001" r="2.44161" fill="#376BF6"/>
<circle cx="695.683" cy="208.365" r="3.05202" fill="#376BF6"/>
<circle cx="695.683" cy="230.34" r="3.66242" fill="#376BF6"/>
<circle cx="695.683" cy="252.925" r="4.27282" fill="#376BF6"/>
<circle cx="695.684" cy="276.12" r="4.88323" fill="#376BF6"/>
<circle cx="695.684" cy="299.926" r="5.49363" fill="#376BF6"/>
<circle cx="695.683" cy="324.342" r="6.10403" fill="#376BF6"/>
<circle cx="695.684" cy="348.758" r="6.71443" fill="#376BF6"/>
<circle cx="695.684" cy="373.174" r="7.32484" fill="#376BF6"/>
<circle cx="695.684" cy="397.59" r="7.93524" fill="#376BF6"/>
<circle cx="695.683" cy="627.712" r="1.83121" transform="rotate(-180 695.683 627.712)" fill="#376BF6"/>
<circle cx="695.684" cy="606.958" r="2.44161" transform="rotate(-180 695.684 606.958)" fill="#376BF6"/>
<circle cx="695.683" cy="585.594" r="3.05202" transform="rotate(-180 695.683 585.594)" fill="#376BF6"/>
<circle cx="695.684" cy="563.62" r="3.66242" transform="rotate(-180 695.684 563.62)" fill="#376BF6"/>
<circle cx="695.683" cy="541.035" r="4.27282" transform="rotate(-180 695.683 541.035)" fill="#376BF6"/>
<circle cx="695.684" cy="517.839" r="4.88323" transform="rotate(-180 695.684 517.839)" fill="#376BF6"/>
<circle cx="695.683" cy="494.034" r="5.49363" transform="rotate(-180 695.683 494.034)" fill="#376BF6"/>
<circle cx="695.684" cy="469.618" r="6.10403" transform="rotate(-180 695.684 469.618)" fill="#376BF6"/>
<circle cx="695.684" cy="445.202" r="6.71443" transform="rotate(-180 695.684 445.202)" fill="#376BF6"/>
<circle cx="695.683" cy="420.786" r="7.32484" transform="rotate(-180 695.683 420.786)" fill="#376BF6"/>
<circle cx="671.267" cy="166.247" r="1.83121" fill="#376BF6"/>
<circle cx="671.267" cy="187.001" r="2.44161" fill="#376BF6"/>
<circle cx="671.267" cy="208.365" r="3.05202" fill="#376BF6"/>
<circle cx="671.267" cy="230.34" r="3.66242" fill="#376BF6"/>
<circle cx="671.267" cy="252.925" r="4.27282" fill="#376BF6"/>
<circle cx="671.267" cy="276.12" r="4.88323" fill="#376BF6"/>
<circle cx="671.267" cy="299.926" r="5.49363" fill="#376BF6"/>
<circle cx="671.267" cy="324.342" r="6.10403" fill="#376BF6"/>
<circle cx="671.267" cy="348.758" r="6.71443" fill="#376BF6"/>
<circle cx="671.267" cy="373.174" r="7.32484" fill="#376BF6"/>
<circle cx="671.267" cy="397.59" r="7.93524" fill="#376BF6"/>
<circle cx="671.267" cy="627.712" r="1.83121" transform="rotate(-180 671.267 627.712)" fill="#376BF6"/>
<circle cx="671.267" cy="606.958" r="2.44161" transform="rotate(-180 671.267 606.958)" fill="#376BF6"/>
<circle cx="671.267" cy="585.594" r="3.05202" transform="rotate(-180 671.267 585.594)" fill="#376BF6"/>
<circle cx="671.267" cy="563.62" r="3.66242" transform="rotate(-180 671.267 563.62)" fill="#376BF6"/>
<circle cx="671.267" cy="541.035" r="4.27282" transform="rotate(-180 671.267 541.035)" fill="#376BF6"/>
<circle cx="671.267" cy="517.839" r="4.88323" transform="rotate(-180 671.267 517.839)" fill="#376BF6"/>
<circle cx="671.267" cy="494.034" r="5.49363" transform="rotate(-180 671.267 494.034)" fill="#376BF6"/>
<circle cx="671.267" cy="469.618" r="6.10403" transform="rotate(-180 671.267 469.618)" fill="#376BF6"/>
<circle cx="671.267" cy="445.202" r="6.71443" transform="rotate(-180 671.267 445.202)" fill="#376BF6"/>
<circle cx="671.267" cy="420.786" r="7.32484" transform="rotate(-180 671.267 420.786)" fill="#376BF6"/>
<circle cx="646.851" cy="190.664" r="1.83121" fill="#376BF6"/>
<circle cx="646.851" cy="211.417" r="2.44161" fill="#376BF6"/>
<circle cx="646.851" cy="232.782" r="3.05202" fill="#376BF6"/>
<circle cx="646.851" cy="254.756" r="3.66242" fill="#376BF6"/>
<circle cx="646.851" cy="277.341" r="4.27282" fill="#376BF6"/>
<circle cx="646.851" cy="300.536" r="4.88323" fill="#376BF6"/>
<circle cx="646.851" cy="324.342" r="5.49363" fill="#376BF6"/>
<circle cx="646.851" cy="348.758" r="6.10403" fill="#376BF6"/>
<circle cx="646.851" cy="373.174" r="6.71443" fill="#376BF6"/>
<circle cx="646.851" cy="397.59" r="7.32484" fill="#376BF6"/>
<circle cx="646.851" cy="603.296" r="1.83121" transform="rotate(-180 646.851 603.296)" fill="#376BF6"/>
<circle cx="646.851" cy="582.542" r="2.44161" transform="rotate(-180 646.851 582.542)" fill="#376BF6"/>
<circle cx="646.851" cy="561.178" r="3.05202" transform="rotate(-180 646.851 561.178)" fill="#376BF6"/>
<circle cx="646.851" cy="539.204" r="3.66242" transform="rotate(-180 646.851 539.204)" fill="#376BF6"/>
<circle cx="646.851" cy="516.619" r="4.27282" transform="rotate(-180 646.851 516.619)" fill="#376BF6"/>
<circle cx="646.851" cy="493.423" r="4.88323" transform="rotate(-180 646.851 493.423)" fill="#376BF6"/>
<circle cx="646.851" cy="469.618" r="5.49363" transform="rotate(-180 646.851 469.618)" fill="#376BF6"/>
<circle cx="646.851" cy="445.202" r="6.10403" transform="rotate(-180 646.851 445.202)" fill="#376BF6"/>
<circle cx="646.851" cy="420.786" r="6.71443" transform="rotate(-180 646.851 420.786)" fill="#376BF6"/>
<circle cx="622.435" cy="190.664" r="1.83121" fill="#376BF6"/>
<circle cx="622.435" cy="211.417" r="2.44161" fill="#376BF6"/>
<circle cx="622.435" cy="232.782" r="3.05202" fill="#376BF6"/>
<circle cx="622.435" cy="254.756" r="3.66242" fill="#376BF6"/>
<circle cx="622.435" cy="277.341" r="4.27282" fill="#376BF6"/>
<circle cx="622.435" cy="300.536" r="4.88323" fill="#376BF6"/>
<circle cx="622.435" cy="324.342" r="5.49363" fill="#376BF6"/>
<circle cx="622.435" cy="348.758" r="6.10403" fill="#376BF6"/>
<circle cx="622.435" cy="373.174" r="6.71443" fill="#376BF6"/>
<circle cx="622.435" cy="397.59" r="7.32484" fill="#376BF6"/>
<circle cx="622.435" cy="603.296" r="1.83121" transform="rotate(-180 622.435 603.296)" fill="#376BF6"/>
<circle cx="622.435" cy="582.542" r="2.44161" transform="rotate(-180 622.435 582.542)" fill="#376BF6"/>
<circle cx="622.435" cy="561.178" r="3.05202" transform="rotate(-180 622.435 561.178)" fill="#376BF6"/>
<circle cx="622.435" cy="539.204" r="3.66242" transform="rotate(-180 622.435 539.204)" fill="#376BF6"/>
<circle cx="622.435" cy="516.619" r="4.27282" transform="rotate(-180 622.435 516.619)" fill="#376BF6"/>
<circle cx="622.435" cy="493.423" r="4.88323" transform="rotate(-180 622.435 493.423)" fill="#376BF6"/>
<circle cx="622.435" cy="469.618" r="5.49363" transform="rotate(-180 622.435 469.618)" fill="#376BF6"/>
<circle cx="622.435" cy="445.202" r="6.10403" transform="rotate(-180 622.435 445.202)" fill="#376BF6"/>
<circle cx="622.435" cy="420.786" r="6.71443" transform="rotate(-180 622.435 420.786)" fill="#376BF6"/>
<circle cx="598.019" cy="215.08" r="1.83121" fill="#376BF6"/>
<circle cx="598.019" cy="235.833" r="2.44161" fill="#376BF6"/>
<circle cx="598.019" cy="257.198" r="3.05202" fill="#376BF6"/>
<circle cx="598.019" cy="279.172" r="3.66242" fill="#376BF6"/>
<circle cx="598.019" cy="301.757" r="4.27282" fill="#376BF6"/>
<circle cx="598.019" cy="324.953" r="4.88323" fill="#376BF6"/>
<circle cx="598.019" cy="348.758" r="5.49363" fill="#376BF6"/>
<circle cx="598.019" cy="373.174" r="6.10403" fill="#376BF6"/>
<circle cx="598.019" cy="397.59" r="6.71443" fill="#376BF6"/>
<circle cx="598.019" cy="578.88" r="1.83121" transform="rotate(-180 598.019 578.88)" fill="#376BF6"/>
<circle cx="598.019" cy="558.126" r="2.44161" transform="rotate(-180 598.019 558.126)" fill="#376BF6"/>
<circle cx="598.019" cy="536.762" r="3.05202" transform="rotate(-180 598.019 536.762)" fill="#376BF6"/>
<circle cx="598.019" cy="514.788" r="3.66242" transform="rotate(-180 598.019 514.788)" fill="#376BF6"/>
<circle cx="598.019" cy="492.203" r="4.27282" transform="rotate(-180 598.019 492.203)" fill="#376BF6"/>
<circle cx="598.019" cy="469.007" r="4.88323" transform="rotate(-180 598.019 469.007)" fill="#376BF6"/>
<circle cx="598.019" cy="445.202" r="5.49363" transform="rotate(-180 598.019 445.202)" fill="#376BF6"/>
<circle cx="598.019" cy="420.785" r="6.10403" transform="rotate(-180 598.019 420.785)" fill="#376BF6"/>
<circle cx="573.603" cy="215.08" r="1.83121" fill="#376BF6"/>
<circle cx="573.603" cy="235.833" r="2.44161" fill="#376BF6"/>
<circle cx="573.603" cy="257.198" r="3.05202" fill="#376BF6"/>
<circle cx="573.603" cy="279.172" r="3.66242" fill="#376BF6"/>
<circle cx="573.603" cy="301.757" r="4.27282" fill="#376BF6"/>
<circle cx="573.603" cy="324.953" r="4.88323" fill="#376BF6"/>
<circle cx="573.603" cy="348.758" r="5.49363" fill="#376BF6"/>
<circle cx="573.603" cy="373.174" r="6.10403" fill="#376BF6"/>
<circle cx="573.603" cy="397.59" r="6.71443" fill="#376BF6"/>
<circle cx="573.603" cy="578.88" r="1.83121" transform="rotate(-180 573.603 578.88)" fill="#376BF6"/>
<circle cx="573.603" cy="558.126" r="2.44161" transform="rotate(-180 573.603 558.126)" fill="#376BF6"/>
<circle cx="573.603" cy="536.762" r="3.05202" transform="rotate(-180 573.603 536.762)" fill="#376BF6"/>
<circle cx="573.603" cy="514.788" r="3.66242" transform="rotate(-180 573.603 514.788)" fill="#376BF6"/>
<circle cx="573.603" cy="492.203" r="4.27282" transform="rotate(-180 573.603 492.203)" fill="#376BF6"/>
<circle cx="573.603" cy="469.007" r="4.88323" transform="rotate(-180 573.603 469.007)" fill="#376BF6"/>
<circle cx="573.603" cy="445.202" r="5.49363" transform="rotate(-180 573.603 445.202)" fill="#376BF6"/>
<circle cx="573.603" cy="420.785" r="6.10403" transform="rotate(-180 573.603 420.785)" fill="#376BF6"/>
<circle cx="549.187" cy="239.496" r="1.83121" fill="#376BF6"/>
<circle cx="549.187" cy="260.249" r="2.44161" fill="#376BF6"/>
<circle cx="549.187" cy="281.614" r="3.05202" fill="#376BF6"/>
<circle cx="549.187" cy="303.588" r="3.66242" fill="#376BF6"/>
<circle cx="549.187" cy="326.173" r="4.27282" fill="#376BF6"/>
<circle cx="549.187" cy="349.369" r="4.88323" fill="#376BF6"/>
<circle cx="549.187" cy="373.174" r="5.49363" fill="#376BF6"/>
<circle cx="549.187" cy="397.59" r="6.10403" fill="#376BF6"/>
<circle cx="549.187" cy="554.464" r="1.83121" transform="rotate(-180 549.187 554.464)" fill="#376BF6"/>
<circle cx="549.187" cy="533.71" r="2.44161" transform="rotate(-180 549.187 533.71)" fill="#376BF6"/>
<circle cx="549.187" cy="512.346" r="3.05202" transform="rotate(-180 549.187 512.346)" fill="#376BF6"/>
<circle cx="549.187" cy="490.372" r="3.66242" transform="rotate(-180 549.187 490.372)" fill="#376BF6"/>
<circle cx="549.187" cy="467.787" r="4.27282" transform="rotate(-180 549.187 467.787)" fill="#376BF6"/>
<circle cx="549.187" cy="444.591" r="4.88323" transform="rotate(-180 549.187 444.591)" fill="#376BF6"/>
<circle cx="549.187" cy="420.786" r="5.49363" transform="rotate(-180 549.187 420.786)" fill="#376BF6"/>
<circle cx="475.938" cy="263.912" r="1.83121" fill="#376BF6"/>
<circle cx="475.938" cy="284.665" r="2.44161" fill="#376BF6"/>
<circle cx="475.938" cy="306.03" r="3.05202" fill="#376BF6"/>
<circle cx="475.938" cy="328.004" r="3.66242" fill="#376BF6"/>
<circle cx="475.938" cy="350.589" r="4.27282" fill="#376BF6"/>
<circle cx="475.938" cy="373.784" r="4.88323" fill="#376BF6"/>
<circle cx="475.938" cy="397.59" r="5.49363" fill="#376BF6"/>
<circle cx="475.938" cy="530.048" r="1.83121" transform="rotate(-180 475.938 530.048)" fill="#376BF6"/>
<circle cx="475.938" cy="509.294" r="2.44161" transform="rotate(-180 475.938 509.294)" fill="#376BF6"/>
<circle cx="475.938" cy="487.93" r="3.05202" transform="rotate(-180 475.938 487.93)" fill="#376BF6"/>
<circle cx="475.938" cy="465.955" r="3.66242" transform="rotate(-180 475.938 465.955)" fill="#376BF6"/>
<circle cx="475.938" cy="443.37" r="4.27282" transform="rotate(-180 475.938 443.37)" fill="#376BF6"/>
<circle cx="475.938" cy="420.175" r="4.88323" transform="rotate(-180 475.938 420.175)" fill="#376BF6"/>
<circle cx="524.771" cy="239.496" r="1.83121" fill="#376BF6"/>
<circle cx="524.771" cy="260.249" r="2.44161" fill="#376BF6"/>
<circle cx="524.771" cy="281.614" r="3.05202" fill="#376BF6"/>
<circle cx="524.771" cy="303.588" r="3.66242" fill="#376BF6"/>
<circle cx="524.771" cy="326.173" r="4.27282" fill="#376BF6"/>
<circle cx="524.771" cy="349.369" r="4.88323" fill="#376BF6"/>
<circle cx="524.771" cy="373.174" r="5.49363" fill="#376BF6"/>
<circle cx="524.771" cy="397.59" r="6.10403" fill="#376BF6"/>
<circle cx="524.771" cy="554.464" r="1.83121" transform="rotate(-180 524.771 554.464)" fill="#376BF6"/>
<circle cx="524.771" cy="533.71" r="2.44161" transform="rotate(-180 524.771 533.71)" fill="#376BF6"/>
<circle cx="524.771" cy="512.346" r="3.05202" transform="rotate(-180 524.771 512.346)" fill="#376BF6"/>
<circle cx="524.771" cy="490.372" r="3.66242" transform="rotate(-180 524.771 490.372)" fill="#376BF6"/>
<circle cx="524.771" cy="467.787" r="4.27282" transform="rotate(-180 524.771 467.787)" fill="#376BF6"/>
<circle cx="524.771" cy="444.591" r="4.88323" transform="rotate(-180 524.771 444.591)" fill="#376BF6"/>
<circle cx="524.771" cy="420.786" r="5.49363" transform="rotate(-180 524.771 420.786)" fill="#376BF6"/>
<circle cx="500.354" cy="263.912" r="1.83121" fill="#376BF6"/>
<circle cx="500.355" cy="284.665" r="2.44161" fill="#376BF6"/>
<circle cx="500.354" cy="306.03" r="3.05202" fill="#376BF6"/>
<circle cx="500.355" cy="328.004" r="3.66242" fill="#376BF6"/>
<circle cx="500.354" cy="350.589" r="4.27282" fill="#376BF6"/>
<circle cx="500.355" cy="373.784" r="4.88323" fill="#376BF6"/>
<circle cx="500.354" cy="397.59" r="5.49363" fill="#376BF6"/>
<circle cx="500.355" cy="530.048" r="1.83121" transform="rotate(-180 500.355 530.048)" fill="#376BF6"/>
<circle cx="500.355" cy="509.294" r="2.44161" transform="rotate(-180 500.355 509.294)" fill="#376BF6"/>
<circle cx="500.354" cy="487.93" r="3.05202" transform="rotate(-180 500.354 487.93)" fill="#376BF6"/>
<circle cx="500.354" cy="465.955" r="3.66242" transform="rotate(-180 500.354 465.955)" fill="#376BF6"/>
<circle cx="500.354" cy="443.37" r="4.27282" transform="rotate(-180 500.354 443.37)" fill="#376BF6"/>
<circle cx="500.354" cy="420.175" r="4.88323" transform="rotate(-180 500.354 420.175)" fill="#376BF6"/>
<circle cx="451.522" cy="287.107" r="1.83121" fill="#376BF6"/>
<circle cx="451.522" cy="307.861" r="2.44161" fill="#376BF6"/>
<circle cx="451.522" cy="329.225" r="3.05202" fill="#376BF6"/>
<circle cx="451.522" cy="351.2" r="3.66242" fill="#376BF6"/>
<circle cx="451.522" cy="373.785" r="4.27282" fill="#376BF6"/>
<circle cx="451.522" cy="396.98" r="4.88323" fill="#376BF6"/>
<circle cx="451.522" cy="508.073" r="1.83121" transform="rotate(-180 451.522 508.073)" fill="#376BF6"/>
<circle cx="451.522" cy="487.319" r="2.44161" transform="rotate(-180 451.522 487.319)" fill="#376BF6"/>
<circle cx="451.522" cy="465.955" r="3.05202" transform="rotate(-180 451.522 465.955)" fill="#376BF6"/>
<circle cx="451.522" cy="443.981" r="3.66242" transform="rotate(-180 451.522 443.981)" fill="#376BF6"/>
<circle cx="451.522" cy="421.396" r="4.27282" transform="rotate(-180 451.522 421.396)" fill="#376BF6"/>
<circle cx="427.106" cy="287.107" r="1.83121" fill="#376BF6"/>
<circle cx="427.106" cy="307.861" r="2.44161" fill="#376BF6"/>
<circle cx="427.106" cy="329.225" r="3.05202" fill="#376BF6"/>
<circle cx="427.106" cy="351.2" r="3.66242" fill="#376BF6"/>
<circle cx="427.106" cy="373.785" r="4.27282" fill="#376BF6"/>
<circle cx="427.106" cy="396.98" r="4.88323" fill="#376BF6"/>
<circle cx="427.106" cy="508.073" r="1.83121" transform="rotate(-180 427.106 508.073)" fill="#376BF6"/>
<circle cx="427.106" cy="487.319" r="2.44161" transform="rotate(-180 427.106 487.319)" fill="#376BF6"/>
<circle cx="427.106" cy="465.955" r="3.05202" transform="rotate(-180 427.106 465.955)" fill="#376BF6"/>
<circle cx="427.106" cy="443.981" r="3.66242" transform="rotate(-180 427.106 443.981)" fill="#376BF6"/>
<circle cx="427.106" cy="421.396" r="4.27282" transform="rotate(-180 427.106 421.396)" fill="#376BF6"/>
<circle cx="402.69" cy="311.523" r="1.83121" fill="#376BF6"/>
<circle cx="402.69" cy="332.277" r="2.44161" fill="#376BF6"/>
<circle cx="402.69" cy="353.641" r="3.05202" fill="#376BF6"/>
<circle cx="402.69" cy="375.616" r="3.66242" fill="#376BF6"/>
<circle cx="402.69" cy="398.201" r="4.27282" fill="#376BF6"/>
<circle cx="402.69" cy="483.657" r="1.83121" transform="rotate(-180 402.69 483.657)" fill="#376BF6"/>
<circle cx="402.69" cy="462.904" r="2.44161" transform="rotate(-180 402.69 462.904)" fill="#376BF6"/>
<circle cx="402.69" cy="441.539" r="3.05202" transform="rotate(-180 402.69 441.539)" fill="#376BF6"/>
<circle cx="402.69" cy="419.565" r="3.66242" transform="rotate(-180 402.69 419.565)" fill="#376BF6"/>
<circle cx="378.274" cy="311.523" r="1.83121" fill="#376BF6"/>
<circle cx="378.274" cy="332.277" r="2.44161" fill="#376BF6"/>
<circle cx="378.274" cy="353.641" r="3.05202" fill="#376BF6"/>
<circle cx="378.274" cy="375.616" r="3.66242" fill="#376BF6"/>
<circle cx="378.274" cy="398.201" r="4.27282" fill="#376BF6"/>
<circle cx="378.274" cy="483.657" r="1.83121" transform="rotate(-180 378.274 483.657)" fill="#376BF6"/>
<circle cx="378.274" cy="462.904" r="2.44161" transform="rotate(-180 378.274 462.904)" fill="#376BF6"/>
<circle cx="378.274" cy="441.539" r="3.05202" transform="rotate(-180 378.274 441.539)" fill="#376BF6"/>
<circle cx="378.274" cy="419.565" r="3.66242" transform="rotate(-180 378.274 419.565)" fill="#376BF6"/>
<circle cx="355.079" cy="334.109" r="1.83121" fill="#376BF6"/>
<circle cx="355.079" cy="354.862" r="2.44161" fill="#376BF6"/>
<circle cx="355.079" cy="376.226" r="3.05202" fill="#376BF6"/>
<circle cx="355.079" cy="398.201" r="3.66242" fill="#376BF6"/>
<circle cx="355.079" cy="465.345" r="1.83121" transform="rotate(-180 355.079 465.345)" fill="#376BF6"/>
<circle cx="355.079" cy="444.591" r="2.44161" transform="rotate(-180 355.079 444.591)" fill="#376BF6"/>
<circle cx="355.079" cy="423.227" r="3.05202" transform="rotate(-180 355.079 423.227)" fill="#376BF6"/>
<circle cx="330.662" cy="334.109" r="1.83121" fill="#376BF6"/>
<circle cx="330.662" cy="354.862" r="2.44161" fill="#376BF6"/>
<circle cx="330.662" cy="376.226" r="3.05202" fill="#376BF6"/>
<circle cx="330.662" cy="398.201" r="3.66242" fill="#376BF6"/>
<circle cx="330.662" cy="465.345" r="1.83121" transform="rotate(-180 330.662 465.345)" fill="#376BF6"/>
<circle cx="330.662" cy="444.591" r="2.44161" transform="rotate(-180 330.662 444.591)" fill="#376BF6"/>
<circle cx="330.662" cy="423.227" r="3.05202" transform="rotate(-180 330.662 423.227)" fill="#376BF6"/>
<circle cx="355.079" cy="334.109" r="1.83121" fill="#376BF6"/>
<circle cx="355.079" cy="354.862" r="2.44161" fill="#376BF6"/>
<circle cx="355.079" cy="376.226" r="3.05202" fill="#376BF6"/>
<circle cx="355.079" cy="398.201" r="3.66242" fill="#376BF6"/>
<circle cx="355.079" cy="465.345" r="1.83121" transform="rotate(-180 355.079 465.345)" fill="#376BF6"/>
<circle cx="355.079" cy="444.591" r="2.44161" transform="rotate(-180 355.079 444.591)" fill="#376BF6"/>
<circle cx="355.079" cy="423.227" r="3.05202" transform="rotate(-180 355.079 423.227)" fill="#376BF6"/>
<circle cx="1136.39" cy="334.109" r="1.83121" fill="#376BF6"/>
<circle cx="1136.39" cy="354.862" r="2.44161" fill="#376BF6"/>
<circle cx="1136.39" cy="376.226" r="3.05202" fill="#376BF6"/>
<circle cx="1136.39" cy="398.201" r="3.66242" fill="#376BF6"/>
<circle cx="1136.39" cy="465.345" r="1.83121" transform="rotate(-180 1136.39 465.345)" fill="#376BF6"/>
<circle cx="1136.39" cy="444.591" r="2.44161" transform="rotate(-180 1136.39 444.591)" fill="#376BF6"/>
<circle cx="1136.39" cy="423.227" r="3.05202" transform="rotate(-180 1136.39 423.227)" fill="#376BF6"/>
<circle cx="1111.98" cy="334.109" r="1.83121" fill="#376BF6"/>
<circle cx="1111.98" cy="354.862" r="2.44161" fill="#376BF6"/>
<circle cx="1111.98" cy="376.226" r="3.05202" fill="#376BF6"/>
<circle cx="1111.98" cy="398.201" r="3.66242" fill="#376BF6"/>
<circle cx="1111.98" cy="465.345" r="1.83121" transform="rotate(-180 1111.98 465.345)" fill="#376BF6"/>
<circle cx="1111.98" cy="444.591" r="2.44161" transform="rotate(-180 1111.98 444.591)" fill="#376BF6"/>
<circle cx="1111.98" cy="423.227" r="3.05202" transform="rotate(-180 1111.98 423.227)" fill="#376BF6"/>
<circle cx="1136.39" cy="334.109" r="1.83121" fill="#376BF6"/>
<circle cx="1136.39" cy="354.862" r="2.44161" fill="#376BF6"/>
<circle cx="1136.39" cy="376.226" r="3.05202" fill="#376BF6"/>
<circle cx="1136.39" cy="398.201" r="3.66242" fill="#376BF6"/>
<circle cx="1136.39" cy="465.345" r="1.83121" transform="rotate(-180 1136.39 465.345)" fill="#376BF6"/>
<circle cx="1136.39" cy="444.591" r="2.44161" transform="rotate(-180 1136.39 444.591)" fill="#376BF6"/>
<circle cx="1136.39" cy="423.227" r="3.05202" transform="rotate(-180 1136.39 423.227)" fill="#376BF6"/>
<circle cx="1086.34" cy="310.913" r="1.83121" fill="#376BF6"/>
<circle cx="1086.34" cy="331.667" r="2.44161" fill="#376BF6"/>
<circle cx="1086.34" cy="353.031" r="3.05202" fill="#376BF6"/>
<circle cx="1086.34" cy="375.005" r="3.66242" fill="#376BF6"/>
<circle cx="1086.34" cy="397.59" r="4.27282" fill="#376BF6"/>
<circle cx="1086.34" cy="483.046" r="1.83121" transform="rotate(-180 1086.34 483.046)" fill="#376BF6"/>
<circle cx="1086.34" cy="462.293" r="2.44161" transform="rotate(-180 1086.34 462.293)" fill="#376BF6"/>
<circle cx="1086.34" cy="440.928" r="3.05202" transform="rotate(-180 1086.34 440.928)" fill="#376BF6"/>
<circle cx="1086.34" cy="418.954" r="3.66242" transform="rotate(-180 1086.34 418.954)" fill="#376BF6"/>
<circle cx="1061.93" cy="310.913" r="1.83121" fill="#376BF6"/>
<circle cx="1061.93" cy="331.667" r="2.44161" fill="#376BF6"/>
<circle cx="1061.93" cy="353.031" r="3.05202" fill="#376BF6"/>
<circle cx="1061.93" cy="375.005" r="3.66242" fill="#376BF6"/>
<circle cx="1061.93" cy="397.59" r="4.27282" fill="#376BF6"/>
<circle cx="1061.93" cy="483.046" r="1.83121" transform="rotate(-180 1061.93 483.046)" fill="#376BF6"/>
<circle cx="1061.93" cy="462.293" r="2.44161" transform="rotate(-180 1061.93 462.293)" fill="#376BF6"/>
<circle cx="1061.93" cy="440.928" r="3.05202" transform="rotate(-180 1061.93 440.928)" fill="#376BF6"/>
<circle cx="1061.93" cy="418.954" r="3.66242" transform="rotate(-180 1061.93 418.954)" fill="#376BF6"/>
<circle cx="1037.51" cy="286.497" r="1.83121" fill="#376BF6"/>
<circle cx="1037.51" cy="307.251" r="2.44161" fill="#376BF6"/>
<circle cx="1037.51" cy="328.615" r="3.05202" fill="#376BF6"/>
<circle cx="1037.51" cy="350.589" r="3.66242" fill="#376BF6"/>
<circle cx="1037.51" cy="373.174" r="4.27282" fill="#376BF6"/>
<circle cx="1037.51" cy="396.369" r="4.88323" fill="#376BF6"/>
<circle cx="1037.51" cy="507.463" r="1.83121" transform="rotate(-180 1037.51 507.463)" fill="#376BF6"/>
<circle cx="1037.51" cy="486.709" r="2.44161" transform="rotate(-180 1037.51 486.709)" fill="#376BF6"/>
<circle cx="1037.51" cy="465.345" r="3.05202" transform="rotate(-180 1037.51 465.345)" fill="#376BF6"/>
<circle cx="1037.51" cy="443.37" r="3.66242" transform="rotate(-180 1037.51 443.37)" fill="#376BF6"/>
<circle cx="1037.51" cy="420.785" r="4.27282" transform="rotate(-180 1037.51 420.785)" fill="#376BF6"/>
<circle cx="1013.09" cy="286.497" r="1.83121" fill="#376BF6"/>
<circle cx="1013.09" cy="307.251" r="2.44161" fill="#376BF6"/>
<circle cx="1013.09" cy="328.615" r="3.05202" fill="#376BF6"/>
<circle cx="1013.09" cy="350.589" r="3.66242" fill="#376BF6"/>
<circle cx="1013.09" cy="373.174" r="4.27282" fill="#376BF6"/>
<circle cx="1013.09" cy="396.369" r="4.88323" fill="#376BF6"/>
<circle cx="1013.09" cy="507.463" r="1.83121" transform="rotate(-180 1013.09 507.463)" fill="#376BF6"/>
<circle cx="1013.09" cy="486.709" r="2.44161" transform="rotate(-180 1013.09 486.709)" fill="#376BF6"/>
<circle cx="1013.09" cy="465.345" r="3.05202" transform="rotate(-180 1013.09 465.345)" fill="#376BF6"/>
<circle cx="1013.09" cy="443.37" r="3.66242" transform="rotate(-180 1013.09 443.37)" fill="#376BF6"/>
<circle cx="1013.09" cy="420.785" r="4.27282" transform="rotate(-180 1013.09 420.785)" fill="#376BF6"/>
<circle cx="988.677" cy="263.912" r="1.83121" fill="#376BF6"/>
<circle cx="988.677" cy="284.665" r="2.44161" fill="#376BF6"/>
<circle cx="988.677" cy="306.03" r="3.05202" fill="#376BF6"/>
<circle cx="988.677" cy="328.004" r="3.66242" fill="#376BF6"/>
<circle cx="988.677" cy="350.589" r="4.27282" fill="#376BF6"/>
<circle cx="988.677" cy="373.784" r="4.88323" fill="#376BF6"/>
<circle cx="988.677" cy="397.59" r="5.49363" fill="#376BF6"/>
<circle cx="988.677" cy="530.048" r="1.83121" transform="rotate(-180 988.677 530.048)" fill="#376BF6"/>
<circle cx="988.677" cy="509.294" r="2.44161" transform="rotate(-180 988.677 509.294)" fill="#376BF6"/>
<circle cx="988.677" cy="487.93" r="3.05202" transform="rotate(-180 988.677 487.93)" fill="#376BF6"/>
<circle cx="988.677" cy="465.955" r="3.66242" transform="rotate(-180 988.677 465.955)" fill="#376BF6"/>
<circle cx="988.677" cy="443.37" r="4.27282" transform="rotate(-180 988.677 443.37)" fill="#376BF6"/>
<circle cx="988.677" cy="420.175" r="4.88323" transform="rotate(-180 988.677 420.175)" fill="#376BF6"/>
<circle cx="964.261" cy="263.912" r="1.83121" fill="#376BF6"/>
<circle cx="964.261" cy="284.665" r="2.44161" fill="#376BF6"/>
<circle cx="964.261" cy="306.03" r="3.05202" fill="#376BF6"/>
<circle cx="964.261" cy="328.004" r="3.66242" fill="#376BF6"/>
<circle cx="964.261" cy="350.589" r="4.27282" fill="#376BF6"/>
<circle cx="964.261" cy="373.784" r="4.88323" fill="#376BF6"/>
<circle cx="964.261" cy="397.59" r="5.49363" fill="#376BF6"/>
<circle cx="964.261" cy="530.048" r="1.83121" transform="rotate(-180 964.261 530.048)" fill="#376BF6"/>
<circle cx="964.261" cy="509.294" r="2.44161" transform="rotate(-180 964.261 509.294)" fill="#376BF6"/>
<circle cx="964.261" cy="487.93" r="3.05202" transform="rotate(-180 964.261 487.93)" fill="#376BF6"/>
<circle cx="964.261" cy="465.955" r="3.66242" transform="rotate(-180 964.261 465.955)" fill="#376BF6"/>
<circle cx="964.261" cy="443.37" r="4.27282" transform="rotate(-180 964.261 443.37)" fill="#376BF6"/>
<circle cx="964.261" cy="420.175" r="4.88323" transform="rotate(-180 964.261 420.175)" fill="#376BF6"/>
<circle cx="939.845" cy="239.496" r="1.83121" fill="#376BF6"/>
<circle cx="939.845" cy="260.249" r="2.44161" fill="#376BF6"/>
<circle cx="939.845" cy="281.614" r="3.05202" fill="#376BF6"/>
<circle cx="939.845" cy="303.588" r="3.66242" fill="#376BF6"/>
<circle cx="939.845" cy="326.173" r="4.27282" fill="#376BF6"/>
<circle cx="939.845" cy="349.369" r="4.88323" fill="#376BF6"/>
<circle cx="939.845" cy="373.174" r="5.49363" fill="#376BF6"/>
<circle cx="939.845" cy="397.59" r="6.10403" fill="#376BF6"/>
<circle cx="939.845" cy="554.464" r="1.83121" transform="rotate(-180 939.845 554.464)" fill="#376BF6"/>
<circle cx="939.845" cy="533.71" r="2.44161" transform="rotate(-180 939.845 533.71)" fill="#376BF6"/>
<circle cx="939.845" cy="512.346" r="3.05202" transform="rotate(-180 939.845 512.346)" fill="#376BF6"/>
<circle cx="939.845" cy="490.372" r="3.66242" transform="rotate(-180 939.845 490.372)" fill="#376BF6"/>
<circle cx="939.845" cy="467.787" r="4.27282" transform="rotate(-180 939.845 467.787)" fill="#376BF6"/>
<circle cx="939.845" cy="444.591" r="4.88323" transform="rotate(-180 939.845 444.591)" fill="#376BF6"/>
<circle cx="939.845" cy="420.786" r="5.49363" transform="rotate(-180 939.845 420.786)" fill="#376BF6"/>
<circle cx="915.429" cy="239.496" r="1.83121" fill="#376BF6"/>
<circle cx="915.429" cy="260.249" r="2.44161" fill="#376BF6"/>
<circle cx="915.429" cy="281.614" r="3.05202" fill="#376BF6"/>
<circle cx="915.429" cy="303.588" r="3.66242" fill="#376BF6"/>
<circle cx="915.429" cy="326.173" r="4.27282" fill="#376BF6"/>
<circle cx="915.429" cy="349.369" r="4.88323" fill="#376BF6"/>
<circle cx="915.429" cy="373.174" r="5.49363" fill="#376BF6"/>
<circle cx="915.429" cy="397.59" r="6.10403" fill="#376BF6"/>
<circle cx="915.429" cy="554.464" r="1.83121" transform="rotate(-180 915.429 554.464)" fill="#376BF6"/>
<circle cx="915.429" cy="533.71" r="2.44161" transform="rotate(-180 915.429 533.71)" fill="#376BF6"/>
<circle cx="915.429" cy="512.346" r="3.05202" transform="rotate(-180 915.429 512.346)" fill="#376BF6"/>
<circle cx="915.429" cy="490.372" r="3.66242" transform="rotate(-180 915.429 490.372)" fill="#376BF6"/>
<circle cx="915.429" cy="467.787" r="4.27282" transform="rotate(-180 915.429 467.787)" fill="#376BF6"/>
<circle cx="915.429" cy="444.591" r="4.88323" transform="rotate(-180 915.429 444.591)" fill="#376BF6"/>
<circle cx="915.429" cy="420.786" r="5.49363" transform="rotate(-180 915.429 420.786)" fill="#376BF6"/>
<circle cx="891.013" cy="215.08" r="1.83121" fill="#376BF6"/>
<circle cx="891.012" cy="235.833" r="2.44161" fill="#376BF6"/>
<circle cx="891.012" cy="257.198" r="3.05202" fill="#376BF6"/>
<circle cx="891.012" cy="279.172" r="3.66242" fill="#376BF6"/>
<circle cx="891.013" cy="301.757" r="4.27282" fill="#376BF6"/>
<circle cx="891.013" cy="324.953" r="4.88323" fill="#376BF6"/>
<circle cx="891.013" cy="348.758" r="5.49363" fill="#376BF6"/>
<circle cx="891.013" cy="373.174" r="6.10403" fill="#376BF6"/>
<circle cx="891.013" cy="397.59" r="6.71443" fill="#376BF6"/>
<circle cx="891.012" cy="578.88" r="1.83121" transform="rotate(-180 891.012 578.88)" fill="#376BF6"/>
<circle cx="891.013" cy="558.126" r="2.44161" transform="rotate(-180 891.013 558.126)" fill="#376BF6"/>
<circle cx="891.013" cy="536.762" r="3.05202" transform="rotate(-180 891.013 536.762)" fill="#376BF6"/>
<circle cx="891.013" cy="514.788" r="3.66242" transform="rotate(-180 891.013 514.788)" fill="#376BF6"/>
<circle cx="891.013" cy="492.203" r="4.27282" transform="rotate(-180 891.013 492.203)" fill="#376BF6"/>
<circle cx="891.013" cy="469.007" r="4.88323" transform="rotate(-180 891.013 469.007)" fill="#376BF6"/>
<circle cx="891.012" cy="445.202" r="5.49363" transform="rotate(-180 891.012 445.202)" fill="#376BF6"/>
<circle cx="891.013" cy="420.785" r="6.10403" transform="rotate(-180 891.013 420.785)" fill="#376BF6"/>
<circle cx="866.596" cy="215.08" r="1.83121" fill="#376BF6"/>
<circle cx="866.596" cy="235.833" r="2.44161" fill="#376BF6"/>
<circle cx="866.596" cy="257.198" r="3.05202" fill="#376BF6"/>
<circle cx="866.596" cy="279.172" r="3.66242" fill="#376BF6"/>
<circle cx="866.596" cy="301.757" r="4.27282" fill="#376BF6"/>
<circle cx="866.596" cy="324.953" r="4.88323" fill="#376BF6"/>
<circle cx="866.596" cy="348.758" r="5.49363" fill="#376BF6"/>
<circle cx="866.596" cy="373.174" r="6.10403" fill="#376BF6"/>
<circle cx="866.596" cy="397.59" r="6.71443" fill="#376BF6"/>
<circle cx="866.596" cy="578.88" r="1.83121" transform="rotate(-180 866.596 578.88)" fill="#376BF6"/>
<circle cx="866.596" cy="558.126" r="2.44161" transform="rotate(-180 866.596 558.126)" fill="#376BF6"/>
<circle cx="866.596" cy="536.762" r="3.05202" transform="rotate(-180 866.596 536.762)" fill="#376BF6"/>
<circle cx="866.596" cy="514.788" r="3.66242" transform="rotate(-180 866.596 514.788)" fill="#376BF6"/>
<circle cx="866.596" cy="492.203" r="4.27282" transform="rotate(-180 866.596 492.203)" fill="#376BF6"/>
<circle cx="866.596" cy="469.007" r="4.88323" transform="rotate(-180 866.596 469.007)" fill="#376BF6"/>
<circle cx="866.596" cy="445.202" r="5.49363" transform="rotate(-180 866.596 445.202)" fill="#376BF6"/>
<circle cx="866.596" cy="420.785" r="6.10403" transform="rotate(-180 866.596 420.785)" fill="#376BF6"/>
<circle cx="842.18" cy="190.664" r="1.83121" fill="#376BF6"/>
<circle cx="842.18" cy="211.417" r="2.44161" fill="#376BF6"/>
<circle cx="842.18" cy="232.782" r="3.05202" fill="#376BF6"/>
<circle cx="842.18" cy="254.756" r="3.66242" fill="#376BF6"/>
<circle cx="842.18" cy="277.341" r="4.27282" fill="#376BF6"/>
<circle cx="842.18" cy="300.536" r="4.88323" fill="#376BF6"/>
<circle cx="842.18" cy="324.342" r="5.49363" fill="#376BF6"/>
<circle cx="842.18" cy="348.758" r="6.10403" fill="#376BF6"/>
<circle cx="842.18" cy="373.174" r="6.71443" fill="#376BF6"/>
<circle cx="842.18" cy="397.59" r="7.32484" fill="#376BF6"/>
<circle cx="842.18" cy="603.296" r="1.83121" transform="rotate(-180 842.18 603.296)" fill="#376BF6"/>
<circle cx="842.18" cy="582.542" r="2.44161" transform="rotate(-180 842.18 582.542)" fill="#376BF6"/>
<circle cx="842.18" cy="561.178" r="3.05202" transform="rotate(-180 842.18 561.178)" fill="#376BF6"/>
<circle cx="842.18" cy="539.204" r="3.66242" transform="rotate(-180 842.18 539.204)" fill="#376BF6"/>
<circle cx="842.18" cy="516.619" r="4.27282" transform="rotate(-180 842.18 516.619)" fill="#376BF6"/>
<circle cx="842.18" cy="493.423" r="4.88323" transform="rotate(-180 842.18 493.423)" fill="#376BF6"/>
<circle cx="842.18" cy="469.618" r="5.49363" transform="rotate(-180 842.18 469.618)" fill="#376BF6"/>
<circle cx="842.18" cy="445.202" r="6.10403" transform="rotate(-180 842.18 445.202)" fill="#376BF6"/>
<circle cx="842.18" cy="420.786" r="6.71443" transform="rotate(-180 842.18 420.786)" fill="#376BF6"/>
<circle cx="817.764" cy="190.664" r="1.83121" fill="#376BF6"/>
<circle cx="817.764" cy="211.417" r="2.44161" fill="#376BF6"/>
<circle cx="817.764" cy="232.782" r="3.05202" fill="#376BF6"/>
<circle cx="817.764" cy="254.756" r="3.66242" fill="#376BF6"/>
<circle cx="817.764" cy="277.341" r="4.27282" fill="#376BF6"/>
<circle cx="817.764" cy="300.536" r="4.88323" fill="#376BF6"/>
<circle cx="817.764" cy="324.342" r="5.49363" fill="#376BF6"/>
<circle cx="817.764" cy="348.758" r="6.10403" fill="#376BF6"/>
<circle cx="817.764" cy="373.174" r="6.71443" fill="#376BF6"/>
<circle cx="817.764" cy="397.59" r="7.32484" fill="#376BF6"/>
<circle cx="817.764" cy="603.296" r="1.83121" transform="rotate(-180 817.764 603.296)" fill="#376BF6"/>
<circle cx="817.764" cy="582.542" r="2.44161" transform="rotate(-180 817.764 582.542)" fill="#376BF6"/>
<circle cx="817.764" cy="561.178" r="3.05202" transform="rotate(-180 817.764 561.178)" fill="#376BF6"/>
<circle cx="817.764" cy="539.204" r="3.66242" transform="rotate(-180 817.764 539.204)" fill="#376BF6"/>
<circle cx="817.764" cy="516.619" r="4.27282" transform="rotate(-180 817.764 516.619)" fill="#376BF6"/>
<circle cx="817.764" cy="493.423" r="4.88323" transform="rotate(-180 817.764 493.423)" fill="#376BF6"/>
<circle cx="817.764" cy="469.618" r="5.49363" transform="rotate(-180 817.764 469.618)" fill="#376BF6"/>
<circle cx="817.764" cy="445.202" r="6.10403" transform="rotate(-180 817.764 445.202)" fill="#376BF6"/>
<circle cx="817.764" cy="420.786" r="6.71443" transform="rotate(-180 817.764 420.786)" fill="#376BF6"/>
<circle cx="793.348" cy="166.247" r="1.83121" fill="#376BF6"/>
<circle cx="793.348" cy="187.001" r="2.44161" fill="#376BF6"/>
<circle cx="793.348" cy="208.365" r="3.05202" fill="#376BF6"/>
<circle cx="793.348" cy="230.34" r="3.66242" fill="#376BF6"/>
<circle cx="793.348" cy="252.925" r="4.27282" fill="#376BF6"/>
<circle cx="793.348" cy="276.12" r="4.88323" fill="#376BF6"/>
<circle cx="793.348" cy="299.926" r="5.49363" fill="#376BF6"/>
<circle cx="793.348" cy="324.342" r="6.10403" fill="#376BF6"/>
<circle cx="793.348" cy="348.758" r="6.71443" fill="#376BF6"/>
<circle cx="793.348" cy="373.174" r="7.32484" fill="#376BF6"/>
<circle cx="793.348" cy="397.59" r="7.93524" fill="#376BF6"/>
<circle cx="793.348" cy="627.712" r="1.83121" transform="rotate(-180 793.348 627.712)" fill="#376BF6"/>
<circle cx="793.348" cy="606.958" r="2.44161" transform="rotate(-180 793.348 606.958)" fill="#376BF6"/>
<circle cx="793.348" cy="585.594" r="3.05202" transform="rotate(-180 793.348 585.594)" fill="#376BF6"/>
<circle cx="793.348" cy="563.62" r="3.66242" transform="rotate(-180 793.348 563.62)" fill="#376BF6"/>
<circle cx="793.348" cy="541.035" r="4.27282" transform="rotate(-180 793.348 541.035)" fill="#376BF6"/>
<circle cx="793.348" cy="517.839" r="4.88323" transform="rotate(-180 793.348 517.839)" fill="#376BF6"/>
<circle cx="793.348" cy="494.034" r="5.49363" transform="rotate(-180 793.348 494.034)" fill="#376BF6"/>
<circle cx="793.348" cy="469.618" r="6.10403" transform="rotate(-180 793.348 469.618)" fill="#376BF6"/>
<circle cx="793.348" cy="445.202" r="6.71443" transform="rotate(-180 793.348 445.202)" fill="#376BF6"/>
<circle cx="793.348" cy="420.786" r="7.32484" transform="rotate(-180 793.348 420.786)" fill="#376BF6"/>
<circle cx="768.932" cy="166.247" r="1.83121" fill="#376BF6"/>
<circle cx="768.932" cy="187.001" r="2.44161" fill="#376BF6"/>
<circle cx="768.932" cy="208.365" r="3.05202" fill="#376BF6"/>
<circle cx="768.932" cy="230.34" r="3.66242" fill="#376BF6"/>
<circle cx="768.932" cy="252.925" r="4.27282" fill="#376BF6"/>
<circle cx="768.932" cy="276.12" r="4.88323" fill="#376BF6"/>
<circle cx="768.932" cy="299.926" r="5.49363" fill="#376BF6"/>
<circle cx="768.932" cy="324.342" r="6.10403" fill="#376BF6"/>
<circle cx="768.932" cy="348.758" r="6.71443" fill="#376BF6"/>
<circle cx="768.932" cy="373.174" r="7.32484" fill="#376BF6"/>
<circle cx="768.932" cy="397.59" r="7.93524" fill="#376BF6"/>
<circle cx="768.932" cy="627.712" r="1.83121" transform="rotate(-180 768.932 627.712)" fill="#376BF6"/>
<circle cx="768.932" cy="606.958" r="2.44161" transform="rotate(-180 768.932 606.958)" fill="#376BF6"/>
<circle cx="768.932" cy="585.594" r="3.05202" transform="rotate(-180 768.932 585.594)" fill="#376BF6"/>
<circle cx="768.932" cy="563.62" r="3.66242" transform="rotate(-180 768.932 563.62)" fill="#376BF6"/>
<circle cx="768.932" cy="541.035" r="4.27282" transform="rotate(-180 768.932 541.035)" fill="#376BF6"/>
<circle cx="768.932" cy="517.839" r="4.88323" transform="rotate(-180 768.932 517.839)" fill="#376BF6"/>
<circle cx="768.932" cy="494.034" r="5.49363" transform="rotate(-180 768.932 494.034)" fill="#376BF6"/>
<circle cx="768.932" cy="469.618" r="6.10403" transform="rotate(-180 768.932 469.618)" fill="#376BF6"/>
<circle cx="768.932" cy="445.202" r="6.71443" transform="rotate(-180 768.932 445.202)" fill="#376BF6"/>
<circle cx="768.932" cy="420.786" r="7.32484" transform="rotate(-180 768.932 420.786)" fill="#376BF6"/>
</g>
<path fill-rule="evenodd" clip-rule="evenodd" d="M-17 532.5H31V291H132V577H735V358.5H827.5V577H859.5V413.5L968 330V508.5H1053.5V276H1080V247.5H1110V214H1140.5V247.5H1169V276H1194V618H1218.5V413.5H1273V372H1330V413.5H1330.5V671.5H1359.5V495.5H1459V819H-17V532.5Z" fill="#2759E3"/>
<path fill-rule="evenodd" clip-rule="evenodd" d="M-14.5 474.5H79V655.5H791V429.5L901.5 482V694H925V409.5H949.5V385H1012.5V409.5H1041V629H1071.5V373H1203.5V671H1238V564V556V515H1268V556H1362V720.5H1386.5V429.5L1443 373V848.5H-14.5V474.5Z" fill="#11318A"/>
</g>
<defs>
<filter id="filter0_d_166_57" x="-21" y="0" width="1484" height="875" filterUnits="userSpaceOnUse" color-interpolation-filters="sRGB">
<feFlood flood-opacity="0" result="BackgroundImageFix"/>
<feColorMatrix in="SourceAlpha" type="matrix" values="0 0 0 0 0 0 0 0 0 0 0 0 0 0 0 0 0 0 127 0" result="hardAlpha"/>
<feOffset dy="4"/>
<feGaussianBlur stdDeviation="2"/>
<feComposite in2="hardAlpha" operator="out"/>
<feColorMatrix type="matrix" values="0 0 0 0 0 0 0 0 0 0 0 0 0 0 0 0 0 0 0.25 0"/>
<feBlend mode="normal" in2="BackgroundImageFix" result="effect1_dropShadow_166_57"/>
<feBlend mode="normal" in="SourceGraphic" in2="effect1_dropShadow_166_57" result="shape"/>
</filter>
<radialGradient id="paint0_radial_166_57" cx="0" cy="0" r="1" gradientUnits="userSpaceOnUse" gradientTransform="translate(721.5 421) rotate(90.0827) scale(346.5 346.088)">
<stop stop-color="white"/>
<stop offset="1" stop-color="#376BF6" stop-opacity="0"/>
</radialGradient>
<clipPath id="clip0_166_57">
<rect width="814" height="702" fill="white" transform="translate(327 140)"/>
</clipPath>
</defs>
</svg>
